<?xml version="1.0" encoding="UTF-8" standalone="no"?><!DOCTYPE svg PUBLIC "-//W3C//DTD SVG 1.1//EN" "http://www.w3.org/Graphics/SVG/1.1/DTD/svg11.dtd"><svg width="100%" height="100%" viewBox="0 0 1009 349" version="1.1" xmlns="http://www.w3.org/2000/svg" xmlns:xlink="http://www.w3.org/1999/xlink" xml:space="preserve" style="fill-rule:evenodd;clip-rule:evenodd;stroke-linejoin:round;stroke-miterlimit:1.41421;"><rect id="glorykidd.-wide" x="0.1" y="0.024" width="1008" height="348.158" style="fill:none;"/><clipPath id="_clip1"><rect x="0.1" y="0.024" width="1008" height="348.158"/></clipPath><g clip-path="url(#_clip1)"><g><g><path d="M461.078,193.414l25.697,0c5.534,6.862 8.3,14.099 8.3,21.713c0,8.854 -3.242,16.291 -9.727,22.311c-6.485,6.02 -14.465,9.03 -23.938,9.03c-12.306,0 -22.753,-4.67 -31.341,-14.01c-8.588,-9.341 -12.882,-20.717 -12.882,-34.13c0,-13.457 4.372,-24.657 13.114,-33.599c8.743,-8.942 19.666,-13.413 32.769,-13.413c4.471,0 9.429,0.907 14.874,2.722l0,26.959c-4.25,-1.992 -8.123,-2.988 -11.62,-2.988c-6.33,0 -11.499,1.97 -15.505,5.91c-4.006,3.94 -6.009,9.052 -6.009,15.338c0,6.419 1.859,11.51 5.578,15.273c3.718,3.762 8.742,5.644 15.073,5.644c4.028,0 6.042,-1.173 6.042,-3.52c0,-1.77 -1.328,-2.656 -3.984,-2.656l-6.441,0l0,-20.584Z" style="fill:#0078c4;fill-rule:nonzero;"/><rect x="504.172" y="153.574" width="24.834" height="90.637" style="fill:#0078c4;fill-rule:nonzero;"/><path d="M574.956,176.615c9.384,0 17.43,3.375 24.136,10.126c6.707,6.751 10.06,14.84 10.06,24.269c0,9.562 -3.397,17.707 -10.192,24.436c-6.795,6.729 -14.996,10.093 -24.602,10.093c-9.606,0 -17.817,-3.376 -24.635,-10.126c-6.817,-6.751 -10.225,-14.885 -10.225,-24.403c0,-9.694 3.408,-17.85 10.225,-24.468c6.818,-6.618 15.228,-9.927 25.233,-9.927Zm-0.664,24.502c-2.656,0 -4.914,0.962 -6.773,2.888c-1.859,1.926 -2.789,4.283 -2.789,7.072c0,2.744 0.941,5.091 2.822,7.038c1.881,1.948 4.128,2.922 6.74,2.922c2.656,0 4.924,-0.974 6.806,-2.922c1.881,-1.947 2.822,-4.294 2.822,-7.038c0,-2.789 -0.93,-5.146 -2.789,-7.072c-1.859,-1.926 -4.139,-2.888 -6.839,-2.888Z" style="fill:#0078c4;fill-rule:nonzero;"/><path d="M655.832,177.345l0,26.56c-1.726,-0.973 -3.298,-1.46 -4.714,-1.46c-4.516,0 -6.773,3.452 -6.773,10.358l0,31.408l-24.834,0l0,-36.189c0,-9.561 2.612,-17.186 7.835,-22.875c5.224,-5.688 12.196,-8.532 20.916,-8.532c1.948,0 4.471,0.243 7.57,0.73Z" style="fill:#0078c4;fill-rule:nonzero;"/><path d="M671.702,273.228l0,-21.58c3.364,1.416 6.308,2.125 8.831,2.125c8.057,0 13.28,-4.538 15.671,-13.613c-4.338,2.568 -8.588,3.852 -12.749,3.852c-6.153,0 -11.222,-2.291 -15.206,-6.873c-3.984,-4.582 -5.976,-10.414 -5.976,-17.497l0,-41.633l24.834,0l0,35.591c0,3.94 1.638,5.91 4.914,5.91c3.143,0 4.714,-2.169 4.714,-6.508l0,-34.993l24.834,0l0,59.097c0,11.022 -3.099,19.92 -9.296,26.693c-7.393,8.057 -16.335,12.085 -26.826,12.085c-4.604,0 -9.186,-0.885 -13.745,-2.656Z" style="fill:#0078c4;fill-rule:nonzero;"/><path d="M816.589,153.574l-23.905,41.102l23.772,49.535l-30.279,0l-20.518,-50.066l23.241,-40.571l27.689,0Zm-51.727,0l0,90.637l-26.958,0l0,-90.637l26.958,0Z" style="fill:#ffa817;fill-rule:nonzero;"/><path d="M848.594,178.009l0,66.202l-24.834,0l0,-66.202l24.834,0Zm-12.351,-29.548c3.365,0 6.275,1.184 8.732,3.552c2.457,2.368 3.685,5.168 3.685,8.4c0,3.453 -1.162,6.286 -3.486,8.499c-2.324,2.214 -5.301,3.32 -8.931,3.32c-3.63,0 -6.606,-1.106 -8.931,-3.32c-2.324,-2.213 -3.486,-5.046 -3.486,-8.499c0,-3.232 1.229,-6.032 3.686,-8.4c2.457,-2.368 5.367,-3.552 8.731,-3.552Z" style="fill:#ffa817;fill-rule:nonzero;"/><path d="M903.972,153.574l24.834,0l0,55.179c0,10.137 -2.656,18.393 -7.968,24.767c-3.054,3.674 -6.939,6.596 -11.653,8.765c-4.715,2.169 -9.551,3.254 -14.509,3.254c-9.871,0 -18.194,-3.32 -24.967,-9.96c-6.772,-6.64 -10.159,-14.786 -10.159,-24.436c0,-9.34 3.364,-17.419 10.093,-24.236c6.729,-6.817 14.697,-10.226 23.904,-10.226c1.461,0 3.675,0.133 6.64,0.398l0,27.358c-2.036,-1.594 -4.072,-2.391 -6.108,-2.391c-2.568,0 -4.77,0.941 -6.607,2.822c-1.837,1.882 -2.756,4.15 -2.756,6.806c0,2.568 0.952,4.77 2.855,6.607c1.904,1.837 4.184,2.756 6.84,2.756c6.374,0 9.561,-4.405 9.561,-13.214l0,-54.249Z" style="fill:#ffa817;fill-rule:nonzero;"/><path d="M982.657,153.574l24.834,0l0,55.179c0,10.137 -2.656,18.393 -7.968,24.767c-3.054,3.674 -6.939,6.596 -11.653,8.765c-4.715,2.169 -9.551,3.254 -14.509,3.254c-9.871,0 -18.194,-3.32 -24.966,-9.96c-6.773,-6.64 -10.16,-14.786 -10.16,-24.436c0,-9.34 3.365,-17.419 10.093,-24.236c6.729,-6.817 14.697,-10.226 23.905,-10.226c1.46,0 3.674,0.133 6.64,0.398l0,27.358c-2.037,-1.594 -4.073,-2.391 -6.109,-2.391c-2.568,0 -4.77,0.941 -6.607,2.822c-1.837,1.882 -2.756,4.15 -2.756,6.806c0,2.568 0.952,4.77 2.855,6.607c1.904,1.837 4.184,2.756 6.84,2.756c6.374,0 9.561,-4.405 9.561,-13.214l0,-54.249Z" style="fill:#ffa817;fill-rule:nonzero;"/></g><g><path d="M747.004,272.896l-2.085,0l0,-18.463l-6.863,0l0,-1.835l15.81,0l0,1.835l-6.862,0l0,18.463Z" style="fill-rule:nonzero;stroke:#000;stroke-width:0.24px;"/><path d="M773.092,265.155c-0.058,-1.261 -0.468,-2.308 -1.231,-3.139c-0.763,-0.832 -1.848,-1.247 -3.258,-1.247c-0.656,0 -1.264,0.119 -1.824,0.358c-0.56,0.239 -1.052,0.564 -1.477,0.975c-0.424,0.411 -0.762,0.879 -1.013,1.405c-0.251,0.525 -0.396,1.075 -0.434,1.648l9.237,0Zm1.998,0.631c0,0.134 0,0.277 0,0.43c0,0.153 -0.01,0.315 -0.029,0.487l-11.235,0c0.019,0.669 0.154,1.3 0.405,1.892c0.251,0.593 0.598,1.109 1.042,1.549c0.444,0.439 0.966,0.788 1.564,1.046c0.599,0.258 1.245,0.387 1.94,0.387c1.023,0 1.906,-0.234 2.65,-0.702c0.743,-0.469 1.308,-1.009 1.694,-1.62l1.476,1.147c-0.81,1.013 -1.703,1.739 -2.678,2.178c-0.975,0.44 -2.022,0.66 -3.142,0.66c-1.004,0 -1.935,-0.177 -2.794,-0.531c-0.859,-0.353 -1.598,-0.845 -2.215,-1.476c-0.618,-0.631 -1.105,-1.376 -1.463,-2.236c-0.357,-0.86 -0.535,-1.797 -0.535,-2.81c0,-1.013 0.173,-1.949 0.521,-2.809c0.347,-0.861 0.83,-1.606 1.448,-2.237c0.618,-0.63 1.341,-1.123 2.171,-1.476c0.831,-0.354 1.728,-0.531 2.693,-0.531c1.062,0 1.998,0.177 2.809,0.531c0.811,0.353 1.487,0.831 2.027,1.433c0.541,0.602 0.951,1.305 1.231,2.108c0.28,0.802 0.42,1.662 0.42,2.58Z" style="fill-rule:nonzero;stroke:#000;stroke-width:0.24px;"/><path d="M797.762,262.546c-0.328,-0.516 -0.806,-0.941 -1.433,-1.276c-0.627,-0.334 -1.308,-0.501 -2.041,-0.501c-0.792,0 -1.506,0.138 -2.143,0.415c-0.637,0.277 -1.183,0.66 -1.636,1.147c-0.454,0.488 -0.801,1.061 -1.043,1.72c-0.241,0.66 -0.362,1.372 -0.362,2.136c0,0.765 0.121,1.472 0.362,2.122c0.242,0.65 0.584,1.218 1.028,1.706c0.444,0.487 0.985,0.869 1.622,1.146c0.637,0.277 1.351,0.416 2.143,0.416c0.868,0 1.602,-0.162 2.2,-0.487c0.599,-0.325 1.091,-0.746 1.477,-1.262l1.477,1.09c-0.579,0.707 -1.289,1.271 -2.128,1.691c-0.84,0.421 -1.849,0.631 -3.026,0.631c-1.101,0 -2.095,-0.177 -2.983,-0.531c-0.888,-0.353 -1.646,-0.845 -2.273,-1.476c-0.627,-0.631 -1.115,-1.376 -1.462,-2.236c-0.348,-0.86 -0.521,-1.797 -0.521,-2.81c0,-1.013 0.173,-1.949 0.521,-2.809c0.347,-0.861 0.835,-1.606 1.462,-2.237c0.627,-0.63 1.385,-1.123 2.273,-1.476c0.888,-0.354 1.882,-0.531 2.983,-0.531c0.907,0 1.829,0.196 2.765,0.588c0.936,0.392 1.694,0.97 2.273,1.735l-1.535,1.089Z" style="fill-rule:nonzero;stroke:#000;stroke-width:0.24px;"/><path d="M813.254,261.686c0.367,-0.784 0.975,-1.405 1.824,-1.863c0.85,-0.459 1.757,-0.689 2.722,-0.689c1.718,0 3.007,0.507 3.866,1.52c0.859,1.013 1.288,2.351 1.288,4.014l0,8.228l-1.969,0l0,-7.426c0,-0.707 -0.058,-1.347 -0.173,-1.92c-0.116,-0.574 -0.314,-1.066 -0.594,-1.477c-0.28,-0.411 -0.656,-0.731 -1.129,-0.96c-0.473,-0.23 -1.067,-0.344 -1.781,-0.344c-0.521,0 -1.028,0.105 -1.52,0.315c-0.493,0.21 -0.932,0.53 -1.318,0.96c-0.386,0.43 -0.695,0.975 -0.927,1.635c-0.231,0.659 -0.347,1.438 -0.347,2.336l0,6.881l-1.969,0l0,-21.674l1.969,0l0,10.464l0.058,0Z" style="fill-rule:nonzero;stroke:#000;stroke-width:0.24px;"/><path d="M838.504,259.479c0.038,0.363 0.067,0.764 0.087,1.204c0.019,0.439 0.029,0.802 0.029,1.089l0.058,0c0.386,-0.784 1.013,-1.419 1.882,-1.906c0.868,-0.488 1.785,-0.732 2.75,-0.732c1.719,0 3.007,0.507 3.866,1.52c0.859,1.013 1.289,2.351 1.289,4.014l0,8.228l-1.969,0l0,-7.426c0,-0.707 -0.058,-1.347 -0.174,-1.92c-0.116,-0.574 -0.314,-1.066 -0.594,-1.477c-0.28,-0.411 -0.656,-0.731 -1.129,-0.96c-0.473,-0.23 -1.067,-0.344 -1.781,-0.344c-0.521,0 -1.028,0.105 -1.52,0.315c-0.492,0.21 -0.931,0.53 -1.317,0.96c-0.387,0.43 -0.695,0.975 -0.927,1.635c-0.232,0.659 -0.348,1.438 -0.348,2.336l0,6.881l-1.969,0l0,-10.465c0,-0.363 -0.009,-0.831 -0.029,-1.404c-0.019,-0.574 -0.048,-1.09 -0.086,-1.548l1.882,0Z" style="fill-rule:nonzero;stroke:#000;stroke-width:0.24px;"/><path d="M875.713,266.187c0,1.013 -0.179,1.95 -0.536,2.81c-0.357,0.86 -0.854,1.605 -1.491,2.236c-0.637,0.631 -1.4,1.123 -2.288,1.476c-0.888,0.354 -1.863,0.531 -2.925,0.531c-1.042,0 -2.007,-0.177 -2.895,-0.531c-0.888,-0.353 -1.651,-0.845 -2.288,-1.476c-0.637,-0.631 -1.134,-1.376 -1.491,-2.236c-0.357,-0.86 -0.536,-1.797 -0.536,-2.81c0,-1.013 0.179,-1.949 0.536,-2.809c0.357,-0.861 0.854,-1.606 1.491,-2.237c0.637,-0.63 1.4,-1.123 2.288,-1.476c0.888,-0.354 1.853,-0.531 2.895,-0.531c1.062,0 2.037,0.177 2.925,0.531c0.888,0.353 1.651,0.846 2.288,1.476c0.637,0.631 1.134,1.376 1.491,2.237c0.357,0.86 0.536,1.796 0.536,2.809Zm-2.085,0c0,-0.745 -0.121,-1.448 -0.362,-2.107c-0.242,-0.659 -0.584,-1.233 -1.028,-1.72c-0.444,-0.488 -0.985,-0.875 -1.622,-1.161c-0.637,-0.287 -1.351,-0.43 -2.143,-0.43c-0.791,0 -1.5,0.143 -2.128,0.43c-0.627,0.286 -1.163,0.673 -1.607,1.161c-0.444,0.487 -0.787,1.061 -1.028,1.72c-0.241,0.659 -0.362,1.362 -0.362,2.107c0,0.746 0.121,1.448 0.362,2.107c0.241,0.66 0.584,1.233 1.028,1.721c0.444,0.487 0.98,0.869 1.607,1.146c0.628,0.277 1.337,0.416 2.128,0.416c0.792,0 1.506,-0.139 2.143,-0.416c0.637,-0.277 1.178,-0.659 1.622,-1.146c0.444,-0.488 0.786,-1.061 1.028,-1.721c0.241,-0.659 0.362,-1.361 0.362,-2.107Z" style="fill-rule:nonzero;stroke:#000;stroke-width:0.24px;"/><rect x="888.685" y="251.222" width="1.969" height="21.674" style="fill-rule:nonzero;stroke:#000;stroke-width:0.24px;"/><path d="M918.075,266.187c0,1.013 -0.178,1.95 -0.535,2.81c-0.357,0.86 -0.854,1.605 -1.491,2.236c-0.637,0.631 -1.4,1.123 -2.288,1.476c-0.888,0.354 -1.863,0.531 -2.925,0.531c-1.042,0 -2.007,-0.177 -2.895,-0.531c-0.888,-0.353 -1.651,-0.845 -2.288,-1.476c-0.637,-0.631 -1.134,-1.376 -1.491,-2.236c-0.357,-0.86 -0.536,-1.797 -0.536,-2.81c0,-1.013 0.179,-1.949 0.536,-2.809c0.357,-0.861 0.854,-1.606 1.491,-2.237c0.637,-0.63 1.4,-1.123 2.288,-1.476c0.888,-0.354 1.853,-0.531 2.895,-0.531c1.062,0 2.037,0.177 2.925,0.531c0.888,0.353 1.651,0.846 2.288,1.476c0.637,0.631 1.134,1.376 1.491,2.237c0.357,0.86 0.535,1.796 0.535,2.809Zm-2.084,0c0,-0.745 -0.121,-1.448 -0.362,-2.107c-0.242,-0.659 -0.584,-1.233 -1.028,-1.72c-0.444,-0.488 -0.985,-0.875 -1.622,-1.161c-0.637,-0.287 -1.351,-0.43 -2.143,-0.43c-0.791,0 -1.5,0.143 -2.128,0.43c-0.627,0.286 -1.163,0.673 -1.607,1.161c-0.444,0.487 -0.787,1.061 -1.028,1.72c-0.241,0.659 -0.362,1.362 -0.362,2.107c0,0.746 0.121,1.448 0.362,2.107c0.241,0.66 0.584,1.233 1.028,1.721c0.444,0.487 0.98,0.869 1.607,1.146c0.628,0.277 1.337,0.416 2.128,0.416c0.792,0 1.506,-0.139 2.143,-0.416c0.637,-0.277 1.178,-0.659 1.622,-1.146c0.444,-0.488 0.786,-1.061 1.028,-1.721c0.241,-0.659 0.362,-1.361 0.362,-2.107Z" style="fill-rule:nonzero;stroke:#000;stroke-width:0.24px;"/><path d="M931.714,275.591c0.54,0.688 1.279,1.271 2.215,1.749c0.936,0.477 1.926,0.716 2.968,0.716c0.965,0 1.786,-0.138 2.461,-0.415c0.676,-0.277 1.221,-0.655 1.636,-1.133c0.415,-0.478 0.719,-1.037 0.912,-1.677c0.193,-0.64 0.29,-1.324 0.29,-2.05l0,-2.523l-0.058,0c-0.521,0.841 -1.259,1.491 -2.215,1.95c-0.956,0.458 -1.926,0.688 -2.91,0.688c-1.062,0 -2.022,-0.172 -2.881,-0.516c-0.859,-0.344 -1.593,-0.817 -2.201,-1.419c-0.608,-0.602 -1.081,-1.324 -1.419,-2.165c-0.338,-0.841 -0.507,-1.749 -0.507,-2.724c0,-0.955 0.169,-1.853 0.507,-2.694c0.338,-0.841 0.811,-1.577 1.419,-2.208c0.608,-0.631 1.342,-1.128 2.201,-1.491c0.859,-0.363 1.819,-0.545 2.881,-0.545c0.984,0 1.95,0.23 2.895,0.689c0.946,0.458 1.69,1.118 2.23,1.978l0.058,0l0,-2.322l1.969,0l0,13.302c0,0.726 -0.101,1.501 -0.304,2.322c-0.203,0.822 -0.579,1.577 -1.129,2.265c-0.55,0.688 -1.298,1.262 -2.244,1.72c-0.946,0.459 -2.172,0.689 -3.678,0.689c-1.255,0 -2.451,-0.239 -3.59,-0.717c-1.139,-0.478 -2.114,-1.137 -2.925,-1.978l1.419,-1.491Zm0.376,-9.576c0,0.707 0.116,1.376 0.348,2.007c0.231,0.631 0.564,1.185 0.999,1.663c0.434,0.478 0.97,0.855 1.607,1.132c0.637,0.277 1.361,0.416 2.172,0.416c0.752,0 1.447,-0.124 2.084,-0.373c0.637,-0.248 1.188,-0.602 1.651,-1.06c0.463,-0.459 0.825,-1.009 1.086,-1.649c0.26,-0.64 0.391,-1.352 0.391,-2.136c0,-0.707 -0.131,-1.376 -0.391,-2.007c-0.261,-0.63 -0.623,-1.185 -1.086,-1.663c-0.463,-0.477 -1.014,-0.86 -1.651,-1.146c-0.637,-0.287 -1.332,-0.43 -2.084,-0.43c-0.811,0 -1.535,0.143 -2.172,0.43c-0.637,0.286 -1.173,0.669 -1.607,1.146c-0.435,0.478 -0.768,1.033 -0.999,1.663c-0.232,0.631 -0.348,1.3 -0.348,2.007Z" style="fill-rule:nonzero;stroke:#000;stroke-width:0.24px;"/><path d="M959.975,272.896l-1.969,0l0,-13.417l1.969,0l0,13.417Zm0.406,-18.578c0,0.401 -0.145,0.731 -0.435,0.989c-0.289,0.258 -0.608,0.387 -0.955,0.387c-0.348,0 -0.666,-0.129 -0.956,-0.387c-0.289,-0.258 -0.434,-0.588 -0.434,-0.989c0,-0.401 0.145,-0.731 0.434,-0.989c0.29,-0.258 0.608,-0.387 0.956,-0.387c0.347,0 0.666,0.129 0.955,0.387c0.29,0.258 0.435,0.588 0.435,0.989Z" style="fill-rule:nonzero;stroke:#000;stroke-width:0.24px;"/><path d="M984.24,265.155c-0.057,-1.261 -0.468,-2.308 -1.23,-3.139c-0.763,-0.832 -1.849,-1.247 -3.258,-1.247c-0.656,0 -1.264,0.119 -1.824,0.358c-0.56,0.239 -1.052,0.564 -1.477,0.975c-0.424,0.411 -0.762,0.879 -1.013,1.405c-0.251,0.525 -0.396,1.075 -0.435,1.648l9.237,0Zm1.998,0.631c0,0.134 0,0.277 0,0.43c0,0.153 -0.009,0.315 -0.029,0.487l-11.235,0c0.02,0.669 0.155,1.3 0.406,1.892c0.251,0.593 0.598,1.109 1.042,1.549c0.444,0.439 0.965,0.788 1.564,1.046c0.598,0.258 1.245,0.387 1.94,0.387c1.023,0 1.906,-0.234 2.649,-0.702c0.744,-0.469 1.308,-1.009 1.694,-1.62l1.477,1.147c-0.811,1.013 -1.703,1.739 -2.678,2.178c-0.975,0.44 -2.022,0.66 -3.142,0.66c-1.004,0 -1.935,-0.177 -2.794,-0.531c-0.859,-0.353 -1.598,-0.845 -2.215,-1.476c-0.618,-0.631 -1.106,-1.376 -1.463,-2.236c-0.357,-0.86 -0.535,-1.797 -0.535,-2.81c0,-1.013 0.173,-1.949 0.521,-2.809c0.347,-0.861 0.83,-1.606 1.448,-2.237c0.617,-0.63 1.341,-1.123 2.171,-1.476c0.83,-0.354 1.728,-0.531 2.693,-0.531c1.062,0 1.998,0.177 2.809,0.531c0.811,0.353 1.486,0.831 2.027,1.433c0.54,0.602 0.951,1.305 1.231,2.108c0.279,0.802 0.419,1.662 0.419,2.58Z" style="fill-rule:nonzero;stroke:#000;stroke-width:0.24px;"/><path d="M1006.36,262.661c-0.29,-0.554 -0.729,-1.008 -1.317,-1.362c-0.589,-0.354 -1.26,-0.53 -2.013,-0.53c-0.347,0 -0.695,0.038 -1.042,0.114c-0.348,0.077 -0.657,0.201 -0.927,0.373c-0.27,0.172 -0.487,0.392 -0.651,0.659c-0.165,0.268 -0.247,0.583 -0.247,0.947c0,0.63 0.261,1.113 0.782,1.447c0.521,0.335 1.342,0.617 2.461,0.846c1.603,0.325 2.785,0.798 3.548,1.419c0.762,0.621 1.143,1.458 1.143,2.509c0,0.764 -0.149,1.409 -0.448,1.935c-0.3,0.526 -0.691,0.956 -1.173,1.29c-0.483,0.335 -1.028,0.574 -1.636,0.717c-0.608,0.143 -1.221,0.215 -1.839,0.215c-1.023,0 -2.017,-0.21 -2.982,-0.631c-0.966,-0.42 -1.757,-1.08 -2.375,-1.978l1.564,-1.147c0.347,0.593 0.859,1.09 1.535,1.491c0.675,0.401 1.418,0.602 2.229,0.602c0.425,0 0.83,-0.038 1.216,-0.115c0.386,-0.076 0.724,-0.21 1.014,-0.401c0.289,-0.191 0.521,-0.435 0.695,-0.731c0.173,-0.296 0.26,-0.664 0.26,-1.104c0,-0.707 -0.342,-1.237 -1.028,-1.591c-0.685,-0.354 -1.674,-0.683 -2.968,-0.989c-0.405,-0.096 -0.835,-0.215 -1.288,-0.358c-0.454,-0.144 -0.874,-0.354 -1.26,-0.631c-0.386,-0.277 -0.704,-0.626 -0.955,-1.047c-0.251,-0.42 -0.377,-0.946 -0.377,-1.576c0,-0.689 0.135,-1.276 0.406,-1.764c0.27,-0.487 0.632,-0.888 1.085,-1.204c0.454,-0.315 0.971,-0.549 1.55,-0.702c0.579,-0.153 1.177,-0.23 1.795,-0.23c0.946,0 1.863,0.211 2.751,0.631c0.888,0.421 1.554,1.013 1.998,1.778l-1.506,1.118Z" style="fill-rule:nonzero;stroke:#000;stroke-width:0.24px;"/></g></g><g><path d="M234.718,134.43c-1.438,-30.377 -6.905,-53.262 -6.905,-53.262l115.342,24.775c0.253,11.301 0.802,23.697 0.599,37.549l40.667,3.38l-1.5,66.603l-44.142,4.952c-20.575,74.472 -87.177,129.755 -174.661,129.755c-48.811,0 -94.522,-11.891 -124.134,-38.188c71.104,3.819 129.539,-13.077 168.328,-63.217c3.591,-4.642 6.734,-9.595 9.478,-14.778l-54.181,6.078l0.6,-109.506l70.509,5.859Z" style="fill:#ffa817;"/><path d="M54.904,305.867c-34.993,-30.815 -54.804,-77.107 -54.804,-130.944c0,-98.108 86.838,-177.986 190.361,-174.759c38.453,1.198 71.342,13.724 96.879,34.272l-83.021,58.154c-4.996,-0.803 -10.127,-1.221 -15.358,-1.221c-51.083,0 -92.555,39.859 -92.555,88.954c0,45.893 36.238,83.716 82.69,88.455c-17.714,14.6 -48.54,36.331 -124.192,37.089Z" style="fill:#0078c4;"/></g></g></svg>