<svg xmlns="http://www.w3.org/2000/svg" viewBox="86.7 201.2 310.7 85.5"><path fill="#0E7C97" stroke="#0E7C97" stroke-width="1.009" stroke-miterlimit="10" d="M396.8 274.5c0 6.5-5.2 11.7-11.7 11.7H98.9c-6.5 0-11.7-5.2-11.7-11.7v-61.1c0-6.5 5.2-11.7 11.7-11.7h286.3c6.5 0 11.7 5.2 11.7 11.7l-.1 61.1z"/><path fill="#FFF" d="M98.9 285.6c-6.1 0-11-5-11-11v-61.2c0-6.1 5-11 11-11h137.8v83.2H98.9z"/><path fill="#0E7C97" d="M236.1 203v81.9H98.9c-5.7 0-10.4-4.7-10.4-10.4v-61.1c0-5.7 4.7-10.4 10.4-10.4h137.2m1.3-1.3zm0 0H98.9c-6.5 0-11.7 5.2-11.7 11.7v61.1c0 6.5 5.2 11.7 11.7 11.7h138.5v-84.5z"/><path fill="#0E7C97" d="M118.1 228l-3.7 5c-1.8 2.5-1.3 7 1.2 8.8l6.8 4.9c1.2.8 1.3 1.7.7 2.6l1 .7 3.4-4.8c2.1-2.9 1.9-6.9-1.2-9.2l-6.8-5c-.8-.6-.9-1.4-.4-2.4l-1-.6zm5.8-22.3l-5.7 7.9c-2.7 3.7-1.7 10 1.9 12.7l9.4 6.9c1.9 1.4 2.1 4.9.8 6.8l.8.6 6.5-9.1c2.9-4.1 2.7-10.1-1.8-13.4l-10-7.3c-1.4-1-2.1-2.7-.9-4.4l-1-.7zm-15 49.4h7.5l1.3 4.6H130l1.3-4.6h7.7l-1-3.4h-28.1l-1 3.4z"/><path fill="#006696" d="M147.9 278.6v-.2c0-.1 0-.1-.1-.1 0 0-.1-.1-.2-.1s-.2-.1-.3-.1c-.1 0-.2-.1-.2-.1-.1 0-.1-.1-.1-.1l-.1-.1v-.2s0-.1.1-.1c0 0 .1 0 .1-.1h.5c.1 0 .1.1.2.1l.1-.2c-.1-.1-.2-.1-.3-.1s-.2-.1-.3-.1h-.2c-.1 0-.1.1-.2.1s-.1.1-.1.2v.4c0 .1.1.1.1.1s.1.1.2.1.2.1.3.1c.1 0 .2.1.2.1.1 0 .1.1.1.1l.1.1v.1c0 .1 0 .2-.1.2-.1.1-.2.1-.3.1-.1 0-.2 0-.3-.1-.1 0-.2-.1-.2-.2l-.1.2c.1.1.2.1.3.2.1 0 .2.1.4.1h.3c.1 0 .1-.1.2-.1s.1-.1.1-.2c-.2 0-.2-.1-.2-.1zm2 .5v-1.9h-.2l-.5 1.1v.3-.3l-.5-1.1h-.2v1.9h.2v-1.5.4l.5 1.2.5-1.2v-.4 1.5h.2z"/><path fill="#0E7C97" d="M115.4 273.9c-.3-2.2-1.2-2.7-3-3.5 1.3-.8 2.1-1.9 2.1-3.5 0-3.1-2.6-4.4-5.4-4.4h-7.8v16.6h7.7c3.5 0 7-1.4 6.4-5.2zm-10.4-8.2h4c2.5 0 2.6 3.5.2 3.5H105v-3.5zm4.5 10.3H105v-3.8h4.5c3.3 0 3.1 3.8 0 3.8zm21.4-2.1c-.3-2.2-1.2-2.7-3-3.5 1.3-.8 2.1-1.9 2.1-3.5 0-3.1-2.6-4.4-5.4-4.4h-7.8v16.6h7.7c3.5 0 7-1.4 6.4-5.2zm-10.4-8.2h4.1c2.5 0 2.6 3.5.2 3.5h-4.2l-.1-3.5zM125 276h-4.5v-3.8h4.5c3.3 0 3.1 3.8 0 3.8zm21.4-2.1c-.3-2.2-1.2-2.7-3-3.5 1.3-.8 2.1-1.9 2.1-3.5 0-3.1-2.6-4.4-5.4-4.4h-7.8v16.6h7.7c3.5 0 7-1.4 6.4-5.2zm-10.4-8.2h4c2.5 0 2.6 3.5.2 3.5H136v-3.5zm4.5 10.3H136v-3.8h4.5c3.3 0 3.1 3.8 0 3.8z"/><path d="M275.8 234.2c-.9-1.1-2.4-2.1-3.8-2.5-.6-.2-1.3-.2-2-.2-1 0-2 .2-2.9.6-.9.4-1.6.9-2.2 1.6-.6.7-1.1 1.5-1.5 2.5-.3 1-.5 2-.5 3.2s.2 2.3.5 3.2c.3 1 .8 1.8 1.4 2.5s1.4 1.2 2.2 1.6c.9.4 1.8.6 2.9.6 1.9 0 5.3-1.1 6.2-2.9l-2.3-2c-.6 1-2.7 1.9-3.9 1.9-.6 0-1.1-.1-1.6-.4-.5-.2-.9-.6-1.2-1-.3-.4-.6-.9-.7-1.5-.2-.6-.3-1.2-.3-1.9s.1-1.4.3-1.9c.2-.6.4-1.1.7-1.5.3-.4.7-.8 1.2-1s1-.4 1.6-.4c1.2 0 2.9.8 3.7 1.8l2.2-2.3zm43.8 12.7V244h-8.2v-3.7h6.6v-2.9h-6.6v-2.7h7.9v-2.9h-11.1v15.1zm14.7-11.1c-.4-1-1-1.7-1.7-2.4-.7-.6-1.5-1-2.5-1.3s-2-.4-3.2-.4h-5v15.2h4.8c1 0 2-.1 3-.4 1-.3 1.9-.7 2.6-1.4.8-.6 1.4-1.4 1.8-2.4.5-1 .7-2.1.7-3.4.1-1.3-.1-2.5-.5-3.5zm-3 5.4c-.2.6-.5 1.1-.9 1.5s-.9.7-1.5.9-1.3.3-2.2.3h-1.6v-9.3h1.7c1.7 0 2.9.4 3.7 1.2.7.8 1.1 1.9 1.1 3.5 0 .7-.1 1.4-.3 1.9zm9.9 5.7v-15.1H338v15.1zm14.9-12.1v-3h-12.4v3h4.6v12.1h3.2v-12.1zm28.2 1c-.4-1-1-1.7-1.7-2.4-.7-.6-1.5-1-2.5-1.3s-2-.4-3.2-.4h-5v15.2h4.8c1 0 2-.1 3-.4 1-.3 1.9-.7 2.6-1.4.8-.6 1.4-1.4 1.8-2.4.5-1 .7-2.1.7-3.4.1-1.3-.1-2.5-.5-3.5zm-2.9 5.4c-.2.6-.5 1.1-.9 1.5s-.9.7-1.5.9-1.3.3-2.2.3h-1.6v-9.3h1.7c1.7 0 2.9.4 3.7 1.2.7.8 1.1 1.9 1.1 3.5 0 .7-.1 1.4-.3 1.9zm-11.8 5.7V244h-8.2v-3.7h6.6v-2.9h-6.6v-2.7h7.9v-2.9h-11.1v15.1zm-26.7 19.6v-3h-8.3v-3.6h6.6v-3h-6.6v-2.6h7.9v-3h-11.1v15.2zm-52.3-32.3c-.9-1.1-2.4-2.1-3.8-2.5-.6-.2-1.3-.2-2-.2-1 0-2 .2-2.9.6-.9.4-1.6.9-2.2 1.6-.6.7-1.1 1.5-1.5 2.5-.3 1-.5 2-.5 3.2s.2 2.3.5 3.2c.3 1 .8 1.8 1.4 2.5.6.7 1.3 1.2 2.2 1.6.9.4 1.8.6 2.9.6 1.9 0 5.3-1.1 6.2-2.9l-2.3-2c-.6 1-2.7 1.9-3.9 1.9-.6 0-1.1-.1-1.6-.4-.5-.2-.9-.6-1.2-1-.3-.4-.6-.9-.7-1.5-.2-.6-.3-1.2-.3-1.9s.1-1.4.3-1.9c.2-.6.4-1.1.7-1.5.3-.4.7-.8 1.2-1s1-.4 1.6-.4c1.2 0 2.9.8 3.7 1.8l2.2-2.3zm-13.7 25.3c-.4-.5-.9-1-1.6-1.2.5-.3.9-.7 1.2-1.2.3-.5.4-1.1.4-1.7 0-1.3-.4-2.3-1.3-3-.9-.7-2.1-1-3.6-1h-7.1v15.2h7.1c.8 0 1.6-.1 2.3-.3.7-.2 1.3-.5 1.7-.9.5-.4.9-.9 1.1-1.5.3-.6.4-1.3.4-2.1 0-1-.2-1.7-.6-2.3zm-8.9-5.4h4c.7 0 1.2.1 1.5.4.3.2.4.6.4 1.1 0 .4-.1.8-.4 1-.3.3-.7.4-1.4.4H268v-2.9zm5.8 9c-.4.4-.9.5-1.7.5H268v-3.9h4.1c1.5 0 2.2.6 2.2 1.9 0 .7-.1 1.1-.5 1.5zm18.4-3.3v-8.5h-3.1v8.5c0 1.2-.3 2.2-.9 2.9-.6.7-1.4 1-2.3 1-1 0-1.8-.4-2.3-1.1-.6-.7-.8-1.7-.8-2.9v-8.5h-3.1v8.5c0 1.1.2 2.1.5 2.9.3.9.7 1.6 1.3 2.2.5.6 1.2 1 2 1.3.8.3 1.6.5 2.6.5 2 0 3.5-.6 4.6-1.8 1-1.1 1.5-2.8 1.5-5zm14.3 2.1c0-.8-.2-1.5-.5-2s-.7-1-1.2-1.3c-.5-.3-1.1-.6-1.7-.8-.6-.2-1.2-.4-1.9-.5-.6-.1-1.1-.3-1.5-.4s-.7-.2-1-.4c-.2-.1-.4-.3-.5-.4-.1-.2-.1-.4-.1-.6 0-.2 0-.3.1-.5s.2-.3.4-.4c.2-.1.4-.2.7-.3.3-.1.6-.1 1-.1.7 0 1.4.1 1.9.4.6.3 1.1.7 1.6 1.2l2.2-2.1c-.7-.8-1.6-1.3-2.5-1.8-.9-.4-2-.6-3.2-.6-.8 0-1.5.1-2.2.3-.7.2-1.3.5-1.8.9s-.9.8-1.2 1.4c-.3.5-.4 1.2-.4 1.9 0 .8.1 1.4.4 1.9.2.5.6.9 1 1.3.4.3.9.6 1.5.8.6.2 1.3.4 2 .6.7.2 1.3.3 1.8.5.5.1.8.3 1.1.5.2.2.4.3.5.5.1.2.1.4.1.6 0 .6-.2 1-.7 1.3-.4.3-1.1.4-2.1.4-.8 0-1.5-.1-2.1-.4-.7-.3-1.3-.7-1.8-1.3l-2.2 1.9c.6.9 1.4 1.5 2.5 2s2.3.7 3.6.7c1.1 0 2-.1 2.7-.3.8-.2 1.4-.6 1.9-1s.9-.9 1.1-1.5c.4-1 .5-1.7.5-2.4zm5.7 4.6v-15.2h-3.1v15.2zm15.8 0v-15.2h-3.1v9.7c-.1-.2-.3-.5-.5-.8l-.6-.9-5.5-8h-3v15.2h3.1v-10c.1.2.3.5.5.8l.6.9 5.7 8.3h2.8zm27.6-4.6c0-.8-.2-1.5-.5-2s-.7-1-1.2-1.3c-.5-.3-1.1-.6-1.7-.8-.6-.2-1.2-.4-1.9-.5-.6-.1-1.1-.3-1.5-.4s-.7-.2-1-.4c-.2-.1-.4-.3-.5-.4-.1-.2-.1-.4-.1-.6 0-.2 0-.3.1-.5s.2-.3.4-.4c.2-.1.4-.2.7-.3.3-.1.6-.1 1-.1.7 0 1.4.1 1.9.4.6.3 1.1.7 1.6 1.2l2.2-2.1c-.7-.8-1.6-1.3-2.5-1.8-.9-.4-2-.6-3.2-.6-.8 0-1.5.1-2.2.3s-1.3.5-1.8.9-.9.8-1.2 1.4c-.3.5-.4 1.2-.4 1.9 0 .8.1 1.4.4 1.9.2.5.6.9 1 1.3.4.3.9.6 1.5.8.6.2 1.3.4 2 .6s1.3.3 1.8.5c.5.1.8.3 1.1.5.2.2.4.3.5.5.1.2.1.4.1.6 0 .6-.2 1-.7 1.3-.4.3-1.1.4-2.1.4-.8 0-1.5-.1-2.1-.4-.7-.3-1.3-.7-1.8-1.3l-2.2 1.9c.6.9 1.4 1.5 2.5 2s2.3.7 3.6.7c1.1 0 2-.1 2.7-.3.8-.2 1.4-.6 1.9-1s.9-.9 1.1-1.5c.4-1 .5-1.7.5-2.4zm13.3 0c0-.8-.2-1.5-.5-2s-.7-1-1.2-1.3c-.5-.3-1.1-.6-1.7-.8-.6-.2-1.2-.4-1.9-.5-.6-.1-1.1-.3-1.5-.4s-.7-.2-1-.4c-.2-.1-.4-.3-.5-.4-.1-.2-.1-.4-.1-.6 0-.2 0-.3.1-.5s.2-.3.4-.4c.2-.1.4-.2.7-.3.3-.1.6-.1 1-.1.7 0 1.4.1 1.9.4.6.3 1.1.7 1.6 1.2l2.2-2.1c-.7-.8-1.6-1.3-2.5-1.8-.9-.4-2-.6-3.2-.6-.8 0-1.5.1-2.2.3s-1.3.5-1.8.9-.9.8-1.2 1.4c-.3.5-.4 1.2-.4 1.9 0 .8.1 1.4.4 1.9.2.5.6.9 1 1.3.4.3.9.6 1.5.8.6.2 1.3.4 2 .6s1.3.3 1.8.5c.5.1.8.3 1.1.5.2.2.4.3.5.5.1.2.1.4.1.6 0 .6-.2 1-.7 1.3-.4.3-1.1.4-2.1.4-.8 0-1.5-.1-2.1-.4-.7-.3-1.3-.7-1.8-1.3l-2.2 1.9c.6.9 1.4 1.5 2.5 2s2.3.7 3.6.7c1.1 0 2-.1 2.7-.3.8-.2 1.4-.6 1.9-1s.9-.9 1.1-1.5c.4-1 .5-1.7.5-2.4zm-112.6-30.1h-3.1l-6.1 15.2h3.4l1.3-3.4h5.8l1.3 3.4h3.5l-6.1-15.2zm-3.5 8.9l1-2.7c.2-.4.3-.9.5-1.3.1-.4.3-.8.3-1.1.1.3.2.6.3 1.1.1.4.3.9.5 1.3l1 2.7h-3.6zm49.8.5c1-.4 2.2-1.1 2.7-1.8s.8-1.7.8-2.8c0-.8-.1-1.5-.4-2.1s-.7-1.1-1.2-1.5-1.1-.7-1.8-.9c-.7-.2-1.4-.3-2.1-.3h-7.4V247h3.2v-5.5l2.8.1 3.3 5.3h3.7l-3.6-5.7zm-2.1-2.6h-4.2v-3.9h4.2c.7 0 1.3.1 1.7.4.4.3.6.8.6 1.5 0 1.3-.8 2-2.3 2z" fill="#FFF"/><path fill="#0E7C97" d="M157.9 201.2h2.7v85.4h-2.7zm44.8 22.2h-8.4l-16.6 41.2h9.3l3.4-9.2h15.9l3.4 9.2h9.6l-16.6-41.2zm-9.4 24.2l2.8-7.5c.5-1.2.9-2.4 1.3-3.5s.7-2.1.9-2.9c.2.8.5 1.7.9 2.9.4 1.1.8 2.3 1.3 3.5l2.8 7.5h-10zm28.5-26.5v-5.9h-3.4v5.9h-5.9v3.4h5.9v5.9h3.4v-5.9h5.9v-3.4z"/></svg>