<?xml version="1.0" encoding="UTF-8" standalone="no"?><!DOCTYPE svg PUBLIC "-//W3C//DTD SVG 1.1//EN" "http://www.w3.org/Graphics/SVG/1.1/DTD/svg11.dtd"><svg width="100%" height="100%" viewBox="0 0 612 555" version="1.1" xmlns="http://www.w3.org/2000/svg" xmlns:xlink="http://www.w3.org/1999/xlink" xml:space="preserve" style="fill-rule:evenodd;clip-rule:evenodd;stroke-linejoin:round;stroke-miterlimit:1.41421;"><rect id="glorykidd.-square" x="0" y="0" width="612" height="554.342" style="fill:none;"/><clipPath id="_clip1"><rect x="0" y="0" width="612" height="554.342"/></clipPath><g clip-path="url(#_clip1)"><g><g><path d="M45.457,458.851l26.614,0c5.731,7.106 8.597,14.602 8.597,22.488c0,9.169 -3.359,16.871 -10.075,23.106c-6.717,6.236 -14.981,9.353 -24.792,9.353c-12.745,0 -23.565,-4.837 -32.46,-14.51c-8.894,-9.674 -13.341,-21.457 -13.341,-35.348c0,-13.938 4.527,-25.537 13.582,-34.798c9.055,-9.261 20.368,-13.892 33.938,-13.892c4.631,0 9.766,0.94 15.405,2.82l0,27.921c-4.401,-2.064 -8.413,-3.095 -12.035,-3.095c-6.556,0 -11.909,2.04 -16.058,6.12c-4.149,4.081 -6.223,9.376 -6.223,15.886c0,6.648 1.925,11.921 5.776,15.818c3.851,3.897 9.055,5.845 15.611,5.845c4.172,0 6.258,-1.215 6.258,-3.645c0,-1.834 -1.375,-2.751 -4.126,-2.751l-6.671,0l0,-21.318Z" style="fill:#0078c4;fill-rule:nonzero;"/><rect x="90.089" y="417.588" width="25.72" height="93.872" style="fill:#0078c4;fill-rule:nonzero;"/><path d="M163.399,441.452c9.719,0 18.052,3.495 24.998,10.487c6.945,6.992 10.418,15.37 10.418,25.136c0,9.903 -3.518,18.339 -10.556,25.307c-7.037,6.969 -15.531,10.453 -25.479,10.453c-9.949,0 -18.454,-3.495 -25.514,-10.487c-7.061,-6.992 -10.591,-15.416 -10.591,-25.273c0,-10.041 3.53,-18.488 10.591,-25.342c7.06,-6.854 15.771,-10.281 26.133,-10.281Zm-0.688,25.376c-2.751,0 -5.089,0.997 -7.015,2.991c-1.925,1.995 -2.888,4.436 -2.888,7.325c0,2.842 0.974,5.272 2.923,7.289c1.948,2.017 4.275,3.026 6.98,3.026c2.751,0 5.1,-1.009 7.049,-3.026c1.948,-2.017 2.923,-4.447 2.923,-7.289c0,-2.889 -0.963,-5.33 -2.889,-7.325c-1.925,-1.994 -4.286,-2.991 -7.083,-2.991Z" style="fill:#0078c4;fill-rule:nonzero;"/><path d="M247.161,442.208l0,27.508c-1.788,-1.008 -3.416,-1.513 -4.883,-1.513c-4.676,0 -7.014,3.576 -7.014,10.729l0,32.528l-25.72,0l0,-37.48c0,-9.903 2.705,-17.8 8.114,-23.691c5.41,-5.892 12.631,-8.837 21.663,-8.837c2.017,0 4.631,0.252 7.84,0.756Z" style="fill:#0078c4;fill-rule:nonzero;"/><path d="M263.597,541.513l0,-22.351c3.484,1.467 6.533,2.201 9.147,2.201c8.344,0 13.754,-4.699 16.229,-14.098c-4.493,2.659 -8.894,3.989 -13.204,3.989c-6.372,0 -11.622,-2.373 -15.748,-7.118c-4.126,-4.745 -6.189,-10.786 -6.189,-18.121l0,-43.119l25.72,0l0,36.861c0,4.08 1.696,6.12 5.089,6.12c3.255,0 4.883,-2.246 4.883,-6.739l0,-36.242l25.72,0l0,61.206c0,11.415 -3.21,20.631 -9.628,27.645c-7.657,8.344 -16.918,12.516 -27.783,12.516c-4.768,0 -9.514,-0.916 -14.236,-2.75Z" style="fill:#0078c4;fill-rule:nonzero;"/><path d="M413.654,417.588l-24.757,42.569l24.62,51.303l-31.36,0l-21.25,-51.853l24.07,-42.019l28.677,0Zm-53.572,0l0,93.872l-27.921,0l0,-93.872l27.921,0Z" style="fill:#ffa817;fill-rule:nonzero;"/><path d="M446.802,442.896l0,68.564l-25.721,0l0,-68.564l25.721,0Zm-12.792,-30.603c3.485,0 6.499,1.226 9.044,3.679c2.544,2.453 3.816,5.353 3.816,8.7c0,3.576 -1.203,6.51 -3.61,8.802c-2.407,2.293 -5.49,3.439 -9.25,3.439c-3.759,0 -6.842,-1.146 -9.249,-3.439c-2.407,-2.292 -3.611,-5.226 -3.611,-8.802c0,-3.347 1.272,-6.247 3.817,-8.7c2.544,-2.453 5.559,-3.679 9.043,-3.679Z" style="fill:#ffa817;fill-rule:nonzero;"/><path d="M504.156,417.588l25.72,0l0,57.149c0,10.499 -2.751,19.049 -8.252,25.651c-3.164,3.805 -7.187,6.831 -12.069,9.078c-4.883,2.246 -9.892,3.369 -15.027,3.369c-10.224,0 -18.843,-3.438 -25.857,-10.315c-7.015,-6.877 -10.522,-15.313 -10.522,-25.308c0,-9.673 3.484,-18.04 10.453,-25.101c6.969,-7.06 15.221,-10.591 24.757,-10.591c1.513,0 3.805,0.138 6.877,0.413l0,28.333c-2.109,-1.65 -4.218,-2.475 -6.327,-2.475c-2.659,0 -4.94,0.974 -6.842,2.922c-1.903,1.949 -2.854,4.299 -2.854,7.049c0,2.66 0.985,4.94 2.957,6.843c1.971,1.903 4.332,2.854 7.083,2.854c6.602,0 9.903,-4.562 9.903,-13.685l0,-56.186Z" style="fill:#ffa817;fill-rule:nonzero;"/><path d="M585.649,417.588l25.72,0l0,57.149c0,10.499 -2.751,19.049 -8.252,25.651c-3.164,3.805 -7.187,6.831 -12.069,9.078c-4.883,2.246 -9.892,3.369 -15.027,3.369c-10.224,0 -18.843,-3.438 -25.857,-10.315c-7.015,-6.877 -10.522,-15.313 -10.522,-25.308c0,-9.673 3.484,-18.04 10.453,-25.101c6.969,-7.06 15.221,-10.591 24.757,-10.591c1.513,0 3.805,0.138 6.877,0.413l0,28.333c-2.109,-1.65 -4.218,-2.475 -6.327,-2.475c-2.659,0 -4.94,0.974 -6.842,2.922c-1.903,1.949 -2.854,4.299 -2.854,7.049c0,2.66 0.985,4.94 2.957,6.843c1.971,1.903 4.332,2.854 7.083,2.854c6.602,0 9.903,-4.562 9.903,-13.685l0,-56.186Z" style="fill:#ffa817;fill-rule:nonzero;"/></g><g><path d="M341.586,541.169l-2.159,0l0,-19.122l-7.108,0l0,-1.901l16.374,0l0,1.901l-7.107,0l0,19.122Z" style="fill:#0b0a00;fill-rule:nonzero;"/><path d="M368.605,533.152c-0.06,-1.307 -0.485,-2.391 -1.275,-3.252c-0.789,-0.861 -1.914,-1.291 -3.373,-1.291c-0.68,0 -1.31,0.123 -1.89,0.371c-0.58,0.247 -1.089,0.584 -1.529,1.009c-0.44,0.426 -0.79,0.911 -1.05,1.455c-0.26,0.545 -0.41,1.114 -0.45,1.708l9.567,0Zm2.069,0.653c0,0.138 0,0.287 0,0.445c0,0.159 -0.01,0.327 -0.03,0.505l-11.636,0c0.02,0.693 0.16,1.346 0.42,1.96c0.26,0.613 0.62,1.148 1.08,1.603c0.46,0.455 0.999,0.817 1.619,1.084c0.62,0.267 1.29,0.401 2.01,0.401c1.059,0 1.974,-0.243 2.744,-0.728c0.769,-0.485 1.354,-1.044 1.754,-1.677l1.529,1.187c-0.839,1.049 -1.764,1.802 -2.774,2.257c-1.009,0.455 -2.094,0.683 -3.253,0.683c-1.04,0 -2.005,-0.183 -2.894,-0.549c-0.89,-0.367 -1.655,-0.876 -2.295,-1.53c-0.639,-0.653 -1.144,-1.425 -1.514,-2.316c-0.37,-0.89 -0.555,-1.86 -0.555,-2.909c0,-1.05 0.18,-2.02 0.54,-2.91c0.36,-0.891 0.86,-1.663 1.499,-2.316c0.64,-0.654 1.39,-1.163 2.25,-1.53c0.859,-0.366 1.789,-0.549 2.789,-0.549c1.099,0 2.069,0.183 2.909,0.549c0.839,0.367 1.539,0.862 2.099,1.485c0.56,0.624 0.985,1.351 1.274,2.183c0.29,0.831 0.435,1.722 0.435,2.672Z" style="fill:#0b0a00;fill-rule:nonzero;"/><path d="M394.156,530.45c-0.34,-0.535 -0.835,-0.975 -1.484,-1.322c-0.65,-0.346 -1.355,-0.519 -2.115,-0.519c-0.819,0 -1.559,0.143 -2.219,0.43c-0.66,0.287 -1.224,0.683 -1.694,1.188c-0.47,0.505 -0.83,1.099 -1.08,1.781c-0.25,0.683 -0.375,1.421 -0.375,2.213c0,0.791 0.125,1.524 0.375,2.197c0.25,0.673 0.605,1.262 1.065,1.766c0.46,0.505 1.019,0.901 1.679,1.188c0.66,0.287 1.4,0.431 2.219,0.431c0.9,0 1.66,-0.169 2.28,-0.505c0.619,-0.337 1.129,-0.772 1.529,-1.307l1.529,1.129c-0.599,0.732 -1.334,1.316 -2.204,1.752c-0.869,0.435 -1.914,0.653 -3.134,0.653c-1.139,0 -2.169,-0.183 -3.089,-0.549c-0.919,-0.367 -1.704,-0.876 -2.354,-1.53c-0.65,-0.653 -1.154,-1.425 -1.514,-2.316c-0.36,-0.89 -0.54,-1.86 -0.54,-2.909c0,-1.05 0.18,-2.02 0.54,-2.91c0.36,-0.891 0.864,-1.663 1.514,-2.316c0.65,-0.654 1.435,-1.163 2.354,-1.53c0.92,-0.366 1.95,-0.549 3.089,-0.549c0.94,0 1.895,0.203 2.864,0.609c0.97,0.406 1.755,1.004 2.354,1.796l-1.589,1.129Z" style="fill:#0b0a00;fill-rule:nonzero;"/><path d="M410.2,529.559c0.38,-0.812 1.01,-1.455 1.89,-1.93c0.879,-0.475 1.819,-0.713 2.819,-0.713c1.779,0 3.114,0.525 4.003,1.574c0.89,1.049 1.335,2.435 1.335,4.157l0,8.522l-2.039,0l0,-7.691c0,-0.732 -0.06,-1.395 -0.18,-1.989c-0.12,-0.594 -0.325,-1.104 -0.615,-1.529c-0.29,-0.426 -0.68,-0.758 -1.17,-0.995c-0.489,-0.238 -1.104,-0.356 -1.844,-0.356c-0.54,0 -1.065,0.109 -1.574,0.326c-0.51,0.218 -0.965,0.55 -1.365,0.995c-0.4,0.445 -0.72,1.01 -0.96,1.692c-0.24,0.683 -0.36,1.49 -0.36,2.42l0,7.127l-2.039,0l0,-22.448l2.039,0l0,10.838l0.06,0Z" style="fill:#0b0a00;fill-rule:nonzero;"/><path d="M436.351,527.272c0.04,0.377 0.07,0.792 0.09,1.248c0.02,0.455 0.03,0.831 0.03,1.128l0.06,0c0.4,-0.812 1.05,-1.47 1.95,-1.975c0.899,-0.504 1.849,-0.757 2.849,-0.757c1.779,0 3.113,0.525 4.003,1.574c0.89,1.049 1.335,2.435 1.335,4.157l0,8.522l-2.04,0l0,-7.691c0,-0.732 -0.06,-1.395 -0.18,-1.989c-0.119,-0.594 -0.324,-1.104 -0.614,-1.529c-0.29,-0.426 -0.68,-0.758 -1.17,-0.995c-0.49,-0.238 -1.104,-0.356 -1.844,-0.356c-0.54,0 -1.065,0.109 -1.575,0.326c-0.51,0.218 -0.964,0.55 -1.364,0.995c-0.4,0.445 -0.72,1.01 -0.96,1.692c-0.24,0.683 -0.36,1.49 -0.36,2.42l0,7.127l-2.039,0l0,-10.838c0,-0.376 -0.01,-0.861 -0.03,-1.455c-0.02,-0.594 -0.05,-1.128 -0.09,-1.604l1.949,0Z" style="fill:#0b0a00;fill-rule:nonzero;"/><path d="M474.888,534.221c0,1.049 -0.185,2.019 -0.555,2.909c-0.37,0.891 -0.885,1.663 -1.544,2.316c-0.66,0.654 -1.45,1.163 -2.37,1.53c-0.919,0.366 -1.929,0.549 -3.029,0.549c-1.079,0 -2.079,-0.183 -2.998,-0.549c-0.92,-0.367 -1.71,-0.876 -2.37,-1.53c-0.659,-0.653 -1.174,-1.425 -1.544,-2.316c-0.37,-0.89 -0.555,-1.86 -0.555,-2.909c0,-1.05 0.185,-2.02 0.555,-2.91c0.37,-0.891 0.885,-1.663 1.544,-2.316c0.66,-0.654 1.45,-1.163 2.37,-1.53c0.919,-0.366 1.919,-0.549 2.998,-0.549c1.1,0 2.11,0.183 3.029,0.549c0.92,0.367 1.71,0.876 2.37,1.53c0.659,0.653 1.174,1.425 1.544,2.316c0.37,0.89 0.555,1.86 0.555,2.91Zm-2.159,0c0,-0.772 -0.125,-1.5 -0.375,-2.183c-0.25,-0.683 -0.605,-1.277 -1.065,-1.781c-0.46,-0.505 -1.02,-0.906 -1.679,-1.203c-0.66,-0.297 -1.4,-0.445 -2.22,-0.445c-0.819,0 -1.554,0.148 -2.204,0.445c-0.65,0.297 -1.204,0.698 -1.664,1.203c-0.46,0.504 -0.815,1.098 -1.065,1.781c-0.25,0.683 -0.375,1.411 -0.375,2.183c0,0.772 0.125,1.499 0.375,2.182c0.25,0.683 0.605,1.277 1.065,1.781c0.46,0.505 1.014,0.901 1.664,1.188c0.65,0.287 1.385,0.431 2.204,0.431c0.82,0 1.56,-0.144 2.22,-0.431c0.659,-0.287 1.219,-0.683 1.679,-1.188c0.46,-0.504 0.815,-1.098 1.065,-1.781c0.25,-0.683 0.375,-1.41 0.375,-2.182Z" style="fill:#0b0a00;fill-rule:nonzero;"/><rect x="488.323" y="518.721" width="2.039" height="22.448" style="fill:#0b0a00;fill-rule:nonzero;"/><path d="M518.763,534.221c0,1.049 -0.185,2.019 -0.555,2.909c-0.37,0.891 -0.885,1.663 -1.545,2.316c-0.659,0.654 -1.449,1.163 -2.369,1.53c-0.92,0.366 -1.929,0.549 -3.029,0.549c-1.079,0 -2.079,-0.183 -2.999,-0.549c-0.919,-0.367 -1.709,-0.876 -2.369,-1.53c-0.66,-0.653 -1.175,-1.425 -1.544,-2.316c-0.37,-0.89 -0.555,-1.86 -0.555,-2.909c0,-1.05 0.185,-2.02 0.555,-2.91c0.369,-0.891 0.884,-1.663 1.544,-2.316c0.66,-0.654 1.45,-1.163 2.369,-1.53c0.92,-0.366 1.92,-0.549 2.999,-0.549c1.1,0 2.109,0.183 3.029,0.549c0.92,0.367 1.71,0.876 2.369,1.53c0.66,0.653 1.175,1.425 1.545,2.316c0.37,0.89 0.555,1.86 0.555,2.91Zm-2.16,0c0,-0.772 -0.125,-1.5 -0.375,-2.183c-0.249,-0.683 -0.604,-1.277 -1.064,-1.781c-0.46,-0.505 -1.02,-0.906 -1.68,-1.203c-0.659,-0.297 -1.399,-0.445 -2.219,-0.445c-0.82,0 -1.554,0.148 -2.204,0.445c-0.65,0.297 -1.205,0.698 -1.664,1.203c-0.46,0.504 -0.815,1.098 -1.065,1.781c-0.25,0.683 -0.375,1.411 -0.375,2.183c0,0.772 0.125,1.499 0.375,2.182c0.25,0.683 0.605,1.277 1.065,1.781c0.459,0.505 1.014,0.901 1.664,1.188c0.65,0.287 1.384,0.431 2.204,0.431c0.82,0 1.56,-0.144 2.219,-0.431c0.66,-0.287 1.22,-0.683 1.68,-1.188c0.46,-0.504 0.815,-1.098 1.064,-1.781c0.25,-0.683 0.375,-1.41 0.375,-2.182Z" style="fill:#0b0a00;fill-rule:nonzero;"/><path d="M532.888,543.96c0.559,0.712 1.324,1.316 2.294,1.811c0.969,0.495 1.994,0.742 3.074,0.742c0.999,0 1.849,-0.143 2.549,-0.43c0.7,-0.287 1.264,-0.678 1.694,-1.173c0.43,-0.495 0.745,-1.074 0.945,-1.737c0.2,-0.663 0.3,-1.371 0.3,-2.123l0,-2.613l-0.06,0c-0.54,0.871 -1.305,1.544 -2.294,2.019c-0.99,0.475 -1.995,0.713 -3.014,0.713c-1.1,0 -2.095,-0.179 -2.984,-0.535c-0.89,-0.356 -1.65,-0.846 -2.279,-1.47c-0.63,-0.623 -1.12,-1.37 -1.47,-2.241c-0.35,-0.871 -0.525,-1.812 -0.525,-2.821c0,-0.99 0.175,-1.92 0.525,-2.791c0.35,-0.871 0.84,-1.633 1.47,-2.287c0.629,-0.653 1.389,-1.168 2.279,-1.544c0.889,-0.376 1.884,-0.564 2.984,-0.564c1.019,0 2.019,0.238 2.999,0.713c0.979,0.475 1.749,1.158 2.309,2.049l0.06,0l0,-2.406l2.039,0l0,13.778c0,0.752 -0.105,1.554 -0.315,2.405c-0.21,0.851 -0.6,1.633 -1.169,2.346c-0.57,0.712 -1.345,1.306 -2.325,1.781c-0.979,0.475 -2.249,0.713 -3.808,0.713c-1.3,0 -2.539,-0.248 -3.719,-0.742c-1.18,-0.495 -2.189,-1.178 -3.029,-2.049l1.47,-1.544Zm0.389,-9.918c0,0.733 0.12,1.426 0.36,2.079c0.24,0.653 0.585,1.227 1.035,1.722c0.45,0.495 1.005,0.886 1.664,1.173c0.66,0.287 1.41,0.43 2.25,0.43c0.779,0 1.499,-0.128 2.159,-0.386c0.66,-0.257 1.229,-0.623 1.709,-1.098c0.48,-0.475 0.855,-1.044 1.125,-1.708c0.27,-0.663 0.405,-1.4 0.405,-2.212c0,-0.732 -0.135,-1.425 -0.405,-2.078c-0.27,-0.653 -0.645,-1.227 -1.125,-1.722c-0.48,-0.495 -1.049,-0.891 -1.709,-1.188c-0.66,-0.297 -1.38,-0.445 -2.159,-0.445c-0.84,0 -1.59,0.148 -2.25,0.445c-0.659,0.297 -1.214,0.693 -1.664,1.188c-0.45,0.495 -0.795,1.069 -1.035,1.722c-0.24,0.653 -0.36,1.346 -0.36,2.078Z" style="fill:#0b0a00;fill-rule:nonzero;"/><path d="M562.157,541.169l-2.039,0l0,-13.897l2.039,0l0,13.897Zm0.42,-19.241c0,0.415 -0.15,0.757 -0.45,1.024c-0.299,0.267 -0.629,0.401 -0.989,0.401c-0.36,0 -0.69,-0.134 -0.99,-0.401c-0.3,-0.267 -0.45,-0.609 -0.45,-1.024c0,-0.416 0.15,-0.757 0.45,-1.025c0.3,-0.267 0.63,-0.4 0.99,-0.4c0.36,0 0.69,0.133 0.989,0.4c0.3,0.268 0.45,0.609 0.45,1.025Z" style="fill:#0b0a00;fill-rule:nonzero;"/><path d="M587.289,533.152c-0.06,-1.307 -0.485,-2.391 -1.275,-3.252c-0.79,-0.861 -1.914,-1.291 -3.374,-1.291c-0.68,0 -1.309,0.123 -1.889,0.371c-0.58,0.247 -1.09,0.584 -1.53,1.009c-0.439,0.426 -0.789,0.911 -1.049,1.455c-0.26,0.545 -0.41,1.114 -0.45,1.708l9.567,0Zm2.069,0.653c0,0.138 0,0.287 0,0.445c0,0.159 -0.01,0.327 -0.03,0.505l-11.636,0c0.02,0.693 0.16,1.346 0.42,1.96c0.26,0.613 0.62,1.148 1.079,1.603c0.46,0.455 1,0.817 1.62,1.084c0.62,0.267 1.289,0.401 2.009,0.401c1.06,0 1.974,-0.243 2.744,-0.728c0.77,-0.485 1.355,-1.044 1.755,-1.677l1.529,1.187c-0.84,1.049 -1.764,1.802 -2.774,2.257c-1.01,0.455 -2.094,0.683 -3.254,0.683c-1.039,0 -2.004,-0.183 -2.894,-0.549c-0.889,-0.367 -1.654,-0.876 -2.294,-1.53c-0.64,-0.653 -1.145,-1.425 -1.514,-2.316c-0.37,-0.89 -0.555,-1.86 -0.555,-2.909c0,-1.05 0.18,-2.02 0.54,-2.91c0.359,-0.891 0.859,-1.663 1.499,-2.316c0.64,-0.654 1.39,-1.163 2.249,-1.53c0.86,-0.366 1.79,-0.549 2.789,-0.549c1.1,0 2.07,0.183 2.909,0.549c0.84,0.367 1.54,0.862 2.1,1.485c0.559,0.624 0.984,1.351 1.274,2.183c0.29,0.831 0.435,1.722 0.435,2.672Z" style="fill:#0b0a00;fill-rule:nonzero;"/><path d="M610.201,530.568c-0.3,-0.574 -0.755,-1.044 -1.365,-1.41c-0.61,-0.366 -1.304,-0.549 -2.084,-0.549c-0.36,0 -0.72,0.039 -1.08,0.118c-0.36,0.08 -0.68,0.208 -0.959,0.386c-0.28,0.179 -0.505,0.406 -0.675,0.683c-0.17,0.277 -0.255,0.604 -0.255,0.98c0,0.653 0.27,1.153 0.81,1.5c0.539,0.346 1.389,0.638 2.549,0.876c1.659,0.336 2.884,0.826 3.673,1.469c0.79,0.644 1.185,1.51 1.185,2.598c0,0.792 -0.155,1.46 -0.465,2.005c-0.31,0.544 -0.715,0.989 -1.214,1.336c-0.5,0.346 -1.065,0.594 -1.695,0.742c-0.63,0.149 -1.264,0.223 -1.904,0.223c-1.06,0 -2.089,-0.218 -3.089,-0.653c-1,-0.436 -1.819,-1.119 -2.459,-2.049l1.619,-1.188c0.36,0.614 0.89,1.129 1.59,1.544c0.699,0.416 1.469,0.624 2.309,0.624c0.44,0 0.86,-0.04 1.259,-0.119c0.4,-0.079 0.75,-0.218 1.05,-0.416c0.3,-0.198 0.54,-0.45 0.72,-0.757c0.18,-0.307 0.27,-0.688 0.27,-1.143c0,-0.732 -0.355,-1.282 -1.065,-1.648c-0.71,-0.366 -1.734,-0.708 -3.074,-1.024c-0.42,-0.099 -0.865,-0.223 -1.334,-0.372c-0.47,-0.148 -0.905,-0.366 -1.305,-0.653c-0.4,-0.287 -0.73,-0.648 -0.99,-1.084c-0.259,-0.435 -0.389,-0.979 -0.389,-1.633c0,-0.712 0.14,-1.321 0.419,-1.826c0.28,-0.505 0.655,-0.92 1.125,-1.247c0.47,-0.326 1.005,-0.569 1.604,-0.727c0.6,-0.159 1.22,-0.238 1.86,-0.238c0.979,0 1.929,0.218 2.849,0.653c0.919,0.436 1.609,1.05 2.069,1.841l-1.559,1.158Z" style="fill:#0b0a00;fill-rule:nonzero;"/></g></g><g><path d="M173.374,316.71c-36.242,-31.915 -56.759,-79.858 -56.759,-135.617c0,-101.609 89.937,-184.337 197.153,-180.995c39.826,1.241 73.889,14.214 100.337,35.495l-85.984,60.229c-5.174,-0.832 -10.488,-1.265 -15.907,-1.265c-52.905,0 -95.857,41.282 -95.857,92.129c0,47.531 37.531,86.703 85.641,91.611c-18.346,15.121 -50.272,37.628 -128.624,38.413Z" style="fill:#0078c4;"/><path d="M359.605,139.156c-1.489,-31.462 -7.152,-55.163 -7.152,-55.163l119.458,25.659c0.262,11.704 0.831,24.543 0.62,38.889l42.119,3.5l-1.554,68.98l-45.717,5.129c-21.309,77.129 -90.288,134.386 -180.894,134.386c-50.553,0 -97.895,-12.317 -128.563,-39.552c73.641,3.956 134.161,-13.544 174.334,-65.473c3.72,-4.808 6.975,-9.937 9.817,-15.305l-56.115,6.294l0.622,-113.413l73.025,6.069Z" style="fill:#ffa817;"/></g></g></svg>