<?xml version="1.0" encoding="UTF-8" standalone="no"?><!DOCTYPE svg PUBLIC "-//W3C//DTD SVG 1.1//EN" "http://www.w3.org/Graphics/SVG/1.1/DTD/svg11.dtd"><svg width="100%" height="100%" viewBox="0 0 612 555" version="1.1" xmlns="http://www.w3.org/2000/svg" xmlns:xlink="http://www.w3.org/1999/xlink" xml:space="preserve" style="fill-rule:evenodd;clip-rule:evenodd;stroke-linejoin:round;stroke-miterlimit:1.41421;"><rect id="glorykidd.-g.-only" x="0" y="0" width="612" height="554.342" style="fill:none;"/><clipPath id="_clip1"><rect x="0" y="0" width="612" height="554.342"/></clipPath><g clip-path="url(#_clip1)"><g><path d="M87.271,486.959c-55.725,-49.071 -87.271,-122.787 -87.271,-208.518c0,-156.23 138.283,-283.429 303.133,-278.291c61.235,1.909 113.608,21.856 154.273,54.577l-132.204,92.605c-7.955,-1.279 -16.126,-1.945 -24.457,-1.945c-81.345,0 -147.387,63.473 -147.387,141.653c0,73.081 57.707,133.31 131.678,140.857c-28.208,23.249 -77.296,57.854 -197.765,59.062Z" style="fill:#0078c4;"/><path d="M373.61,213.959c-2.29,-48.374 -10.996,-84.816 -10.996,-84.816l183.673,39.452c0.403,17.996 1.278,37.737 0.953,59.794l64.76,5.382l-2.389,106.061l-70.293,7.885c-32.763,118.591 -138.821,206.625 -278.133,206.625c-77.728,0 -150.519,-18.936 -197.673,-60.812c113.227,6.082 206.28,-20.824 268.048,-100.668c5.719,-7.392 10.724,-15.278 15.093,-23.533l-86.278,9.679l0.955,-174.38l112.28,9.331Z" style="fill:#ffa817;"/></g></g></svg>