<?xml version="1.0" encoding="UTF-8" standalone="no"?><!DOCTYPE svg PUBLIC "-//W3C//DTD SVG 1.1//EN" "http://www.w3.org/Graphics/SVG/1.1/DTD/svg11.dtd"><svg width="100%" height="100%" viewBox="0 0 612 792" version="1.1" xmlns="http://www.w3.org/2000/svg" xmlns:xlink="http://www.w3.org/1999/xlink" xml:space="preserve" style="fill-rule:evenodd;clip-rule:evenodd;stroke-linejoin:round;stroke-miterlimit:1.41421;"><g><g><path d="M64.01,514.279l23.876,0c5.141,6.375 7.712,13.1 7.712,20.174c0,8.226 -3.013,15.136 -9.039,20.729c-6.025,5.594 -13.439,8.391 -22.24,8.391c-11.434,0 -21.141,-4.339 -29.12,-13.018c-7.979,-8.678 -11.968,-19.248 -11.968,-31.71c0,-12.504 4.061,-22.909 12.184,-31.217c8.123,-8.309 18.272,-12.463 30.446,-12.463c4.154,0 8.761,0.844 13.82,2.53l0,25.048c-3.949,-1.851 -7.548,-2.777 -10.797,-2.777c-5.881,0 -10.683,1.831 -14.405,5.491c-3.723,3.661 -5.584,8.411 -5.584,14.251c0,5.964 1.728,10.694 5.183,14.19c3.454,3.496 8.123,5.244 14.004,5.244c3.743,0 5.614,-1.09 5.614,-3.27c0,-1.645 -1.234,-2.468 -3.701,-2.468l-5.985,0l0,-19.125Z" style="fill:#0078c4;fill-rule:nonzero;"/><rect x="104.05" y="477.263" width="23.074" height="84.212" style="fill:#0078c4;fill-rule:nonzero;"/><path d="M169.815,498.671c8.72,0 16.195,3.136 22.426,9.408c6.231,6.272 9.347,13.789 9.347,22.549c0,8.884 -3.157,16.452 -9.47,22.704c-6.314,6.251 -13.933,9.377 -22.858,9.377c-8.925,0 -16.554,-3.136 -22.888,-9.408c-6.334,-6.272 -9.501,-13.83 -9.501,-22.673c0,-9.007 3.167,-16.585 9.501,-22.734c6.334,-6.149 14.148,-9.223 23.443,-9.223Zm-0.616,22.765c-2.468,0 -4.566,0.894 -6.293,2.684c-1.728,1.789 -2.591,3.979 -2.591,6.57c0,2.55 0.874,4.73 2.622,6.539c1.748,1.81 3.835,2.715 6.262,2.715c2.467,0 4.575,-0.905 6.323,-2.715c1.748,-1.809 2.622,-3.989 2.622,-6.539c0,-2.591 -0.864,-4.781 -2.591,-6.57c-1.727,-1.79 -3.846,-2.684 -6.354,-2.684Z" style="fill:#0078c4;fill-rule:nonzero;"/><path d="M244.959,499.349l0,24.678c-1.604,-0.905 -3.064,-1.357 -4.381,-1.357c-4.195,0 -6.292,3.208 -6.292,9.624l0,29.181l-23.074,0l0,-33.623c0,-8.884 2.427,-15.968 7.28,-21.254c4.853,-5.285 11.331,-7.927 19.434,-7.927c1.809,0 4.154,0.226 7.033,0.678Z" style="fill:#0078c4;fill-rule:nonzero;"/><path d="M259.704,588.435l0,-20.05c3.125,1.316 5.861,1.974 8.205,1.974c7.485,0 12.339,-4.216 14.56,-12.647c-4.031,2.385 -7.979,3.578 -11.846,3.578c-5.717,0 -10.426,-2.128 -14.128,-6.385c-3.701,-4.257 -5.552,-9.676 -5.552,-16.257l0,-38.682l23.074,0l0,33.068c0,3.661 1.521,5.491 4.565,5.491c2.92,0 4.38,-2.015 4.38,-6.046l0,-32.513l23.074,0l0,54.908c0,10.241 -2.879,18.508 -8.637,24.801c-6.869,7.485 -15.177,11.228 -24.925,11.228c-4.277,0 -8.534,-0.822 -12.77,-2.468Z" style="fill:#0078c4;fill-rule:nonzero;"/><path d="M394.32,477.263l-22.21,38.189l22.086,46.023l-28.132,0l-19.063,-46.517l21.592,-37.695l25.727,0Zm-48.06,0l0,84.212l-25.048,0l0,-84.212l25.048,0Z" style="fill:#ffa817;fill-rule:nonzero;"/><path d="M424.056,499.966l0,61.509l-23.073,0l0,-61.509l23.073,0Zm-11.475,-27.453c3.126,0 5.83,1.1 8.113,3.3c2.283,2.201 3.424,4.802 3.424,7.804c0,3.209 -1.08,5.841 -3.239,7.897c-2.159,2.057 -4.925,3.085 -8.298,3.085c-3.372,0 -6.138,-1.028 -8.298,-3.085c-2.159,-2.056 -3.239,-4.688 -3.239,-7.897c0,-3.002 1.142,-5.603 3.424,-7.804c2.283,-2.2 4.987,-3.3 8.113,-3.3Z" style="fill:#ffa817;fill-rule:nonzero;"/><path d="M475.509,477.263l23.074,0l0,51.268c0,9.418 -2.468,17.089 -7.404,23.011c-2.838,3.414 -6.447,6.129 -10.827,8.144c-4.38,2.015 -8.874,3.023 -13.48,3.023c-9.172,0 -16.904,-3.085 -23.197,-9.254c-6.293,-6.169 -9.439,-13.737 -9.439,-22.703c0,-8.679 3.126,-16.185 9.377,-22.519c6.252,-6.334 13.655,-9.501 22.21,-9.501c1.357,0 3.414,0.124 6.17,0.371l0,25.418c-1.892,-1.481 -3.784,-2.221 -5.676,-2.221c-2.386,0 -4.432,0.874 -6.139,2.622c-1.707,1.748 -2.56,3.855 -2.56,6.323c0,2.386 0.884,4.432 2.653,6.139c1.768,1.707 3.886,2.56 6.354,2.56c5.923,0 8.884,-4.092 8.884,-12.277l0,-50.404Z" style="fill:#ffa817;fill-rule:nonzero;"/><path d="M548.616,477.263l23.074,0l0,51.268c0,9.418 -2.468,17.089 -7.403,23.011c-2.838,3.414 -6.447,6.129 -10.828,8.144c-4.38,2.015 -8.873,3.023 -13.48,3.023c-9.172,0 -16.904,-3.085 -23.197,-9.254c-6.292,-6.169 -9.439,-13.737 -9.439,-22.703c0,-8.679 3.126,-16.185 9.378,-22.519c6.251,-6.334 13.655,-9.501 22.209,-9.501c1.358,0 3.414,0.124 6.17,0.371l0,25.418c-1.892,-1.481 -3.784,-2.221 -5.676,-2.221c-2.385,0 -4.432,0.874 -6.138,2.622c-1.707,1.748 -2.561,3.855 -2.561,6.323c0,2.386 0.884,4.432 2.653,6.139c1.769,1.707 3.887,2.56 6.355,2.56c5.922,0 8.883,-4.092 8.883,-12.277l0,-50.404Z" style="fill:#ffa817;fill-rule:nonzero;"/></g><g><path d="M329.667,588.127l-1.937,0l0,-17.155l-6.376,0l0,-1.704l14.689,0l0,1.704l-6.376,0l0,17.155Z" style="fill:#0b0a00;fill-rule:nonzero;"/><path d="M353.906,580.935c-0.054,-1.172 -0.435,-2.145 -1.143,-2.917c-0.709,-0.772 -1.718,-1.159 -3.027,-1.159c-0.61,0 -1.175,0.111 -1.695,0.333c-0.52,0.222 -0.977,0.524 -1.372,0.906c-0.395,0.382 -0.708,0.817 -0.942,1.305c-0.233,0.488 -0.367,0.999 -0.403,1.532l8.582,0Zm1.856,0.586c0,0.124 0,0.257 0,0.399c0,0.142 -0.008,0.293 -0.026,0.453l-10.439,0c0.018,0.622 0.143,1.208 0.377,1.758c0.233,0.551 0.556,1.03 0.968,1.439c0.413,0.408 0.897,0.732 1.453,0.972c0.556,0.24 1.157,0.36 1.802,0.36c0.951,0 1.772,-0.218 2.462,-0.653c0.691,-0.435 1.215,-0.937 1.574,-1.505l1.372,1.065c-0.753,0.942 -1.583,1.616 -2.488,2.025c-0.906,0.408 -1.879,0.612 -2.92,0.612c-0.932,0 -1.798,-0.164 -2.596,-0.492c-0.798,-0.329 -1.484,-0.786 -2.058,-1.372c-0.574,-0.586 -1.027,-1.279 -1.358,-2.078c-0.332,-0.799 -0.498,-1.669 -0.498,-2.61c0,-0.941 0.161,-1.812 0.484,-2.611c0.323,-0.799 0.771,-1.491 1.345,-2.077c0.574,-0.586 1.247,-1.044 2.018,-1.372c0.771,-0.329 1.605,-0.493 2.502,-0.493c0.987,0 1.856,0.164 2.61,0.493c0.753,0.328 1.381,0.772 1.883,1.332c0.502,0.559 0.883,1.212 1.143,1.957c0.26,0.746 0.39,1.545 0.39,2.398Z" style="fill:#0b0a00;fill-rule:nonzero;"/><path d="M376.828,578.511c-0.305,-0.48 -0.749,-0.875 -1.332,-1.186c-0.583,-0.31 -1.215,-0.466 -1.896,-0.466c-0.736,0 -1.399,0.129 -1.991,0.387c-0.592,0.257 -1.099,0.612 -1.52,1.065c-0.422,0.453 -0.745,0.986 -0.969,1.598c-0.224,0.613 -0.336,1.274 -0.336,1.985c0,0.71 0.112,1.367 0.336,1.971c0.224,0.604 0.543,1.132 0.955,1.585c0.413,0.453 0.915,0.808 1.507,1.065c0.592,0.258 1.255,0.387 1.991,0.387c0.807,0 1.488,-0.151 2.044,-0.453c0.556,-0.302 1.014,-0.693 1.372,-1.172l1.373,1.012c-0.539,0.657 -1.198,1.181 -1.978,1.571c-0.78,0.391 -1.717,0.586 -2.811,0.586c-1.023,0 -1.946,-0.164 -2.771,-0.492c-0.825,-0.329 -1.529,-0.786 -2.112,-1.372c-0.583,-0.586 -1.036,-1.279 -1.359,-2.078c-0.323,-0.799 -0.484,-1.669 -0.484,-2.61c0,-0.941 0.161,-1.812 0.484,-2.611c0.323,-0.799 0.776,-1.491 1.359,-2.077c0.583,-0.586 1.287,-1.044 2.112,-1.372c0.825,-0.329 1.748,-0.493 2.771,-0.493c0.843,0 1.699,0.182 2.569,0.546c0.87,0.364 1.574,0.901 2.112,1.612l-1.426,1.012Z" style="fill:#0b0a00;fill-rule:nonzero;"/><path d="M391.221,577.712c0.341,-0.728 0.906,-1.306 1.695,-1.732c0.79,-0.426 1.633,-0.639 2.529,-0.639c1.597,0 2.794,0.471 3.592,1.412c0.798,0.941 1.197,2.184 1.197,3.729l0,7.645l-1.829,0l0,-6.899c0,-0.657 -0.054,-1.252 -0.162,-1.785c-0.107,-0.533 -0.291,-0.99 -0.551,-1.372c-0.26,-0.382 -0.61,-0.679 -1.049,-0.892c-0.44,-0.213 -0.991,-0.32 -1.655,-0.32c-0.484,0 -0.955,0.098 -1.412,0.293c-0.458,0.196 -0.866,0.493 -1.225,0.893c-0.358,0.399 -0.645,0.905 -0.861,1.518c-0.215,0.613 -0.322,1.336 -0.322,2.171l0,6.393l-1.83,0l0,-20.138l1.83,0l0,9.723l0.053,0Z" style="fill:#0b0a00;fill-rule:nonzero;"/><path d="M414.681,575.661c0.036,0.337 0.063,0.71 0.081,1.118c0.018,0.409 0.027,0.746 0.027,1.013l0.054,0c0.359,-0.728 0.941,-1.319 1.749,-1.772c0.807,-0.453 1.659,-0.679 2.555,-0.679c1.597,0 2.794,0.471 3.592,1.412c0.798,0.941 1.197,2.184 1.197,3.729l0,7.645l-1.829,0l0,-6.899c0,-0.657 -0.054,-1.252 -0.162,-1.785c-0.107,-0.533 -0.291,-0.99 -0.551,-1.372c-0.26,-0.382 -0.61,-0.679 -1.049,-0.892c-0.44,-0.213 -0.991,-0.32 -1.655,-0.32c-0.484,0 -0.955,0.098 -1.412,0.293c-0.458,0.196 -0.866,0.493 -1.225,0.893c-0.358,0.399 -0.645,0.905 -0.86,1.518c-0.216,0.613 -0.323,1.336 -0.323,2.171l0,6.393l-1.83,0l0,-9.723c0,-0.337 -0.009,-0.772 -0.027,-1.305c-0.018,-0.533 -0.044,-1.012 -0.08,-1.438l1.748,0Z" style="fill:#0b0a00;fill-rule:nonzero;"/><path d="M449.253,581.894c0,0.941 -0.166,1.811 -0.498,2.61c-0.332,0.799 -0.794,1.492 -1.386,2.078c-0.592,0.586 -1.3,1.043 -2.125,1.372c-0.825,0.328 -1.731,0.492 -2.717,0.492c-0.969,0 -1.866,-0.164 -2.691,-0.492c-0.825,-0.329 -1.533,-0.786 -2.125,-1.372c-0.592,-0.586 -1.054,-1.279 -1.386,-2.078c-0.331,-0.799 -0.497,-1.669 -0.497,-2.61c0,-0.941 0.166,-1.812 0.497,-2.611c0.332,-0.799 0.794,-1.491 1.386,-2.077c0.592,-0.586 1.3,-1.044 2.125,-1.372c0.825,-0.329 1.722,-0.493 2.691,-0.493c0.986,0 1.892,0.164 2.717,0.493c0.825,0.328 1.533,0.786 2.125,1.372c0.592,0.586 1.054,1.278 1.386,2.077c0.332,0.799 0.498,1.67 0.498,2.611Zm-1.938,0c0,-0.693 -0.112,-1.345 -0.336,-1.958c-0.224,-0.613 -0.542,-1.146 -0.955,-1.598c-0.412,-0.453 -0.915,-0.813 -1.507,-1.079c-0.591,-0.267 -1.255,-0.4 -1.99,-0.4c-0.736,0 -1.395,0.133 -1.978,0.4c-0.583,0.266 -1.08,0.626 -1.493,1.079c-0.412,0.452 -0.731,0.985 -0.955,1.598c-0.224,0.613 -0.336,1.265 -0.336,1.958c0,0.692 0.112,1.345 0.336,1.958c0.224,0.612 0.543,1.145 0.955,1.598c0.413,0.453 0.91,0.808 1.493,1.065c0.583,0.258 1.242,0.387 1.978,0.387c0.735,0 1.399,-0.129 1.99,-0.387c0.592,-0.257 1.095,-0.612 1.507,-1.065c0.413,-0.453 0.731,-0.986 0.955,-1.598c0.224,-0.613 0.336,-1.266 0.336,-1.958Z" style="fill:#0b0a00;fill-rule:nonzero;"/><rect x="461.305" y="567.989" width="1.829" height="20.138" style="fill:#0b0a00;fill-rule:nonzero;"/><path d="M488.613,581.894c0,0.941 -0.166,1.811 -0.498,2.61c-0.332,0.799 -0.794,1.492 -1.386,2.078c-0.592,0.586 -1.3,1.043 -2.125,1.372c-0.825,0.328 -1.731,0.492 -2.717,0.492c-0.969,0 -1.866,-0.164 -2.691,-0.492c-0.825,-0.329 -1.533,-0.786 -2.125,-1.372c-0.592,-0.586 -1.054,-1.279 -1.386,-2.078c-0.331,-0.799 -0.497,-1.669 -0.497,-2.61c0,-0.941 0.166,-1.812 0.497,-2.611c0.332,-0.799 0.794,-1.491 1.386,-2.077c0.592,-0.586 1.3,-1.044 2.125,-1.372c0.825,-0.329 1.722,-0.493 2.691,-0.493c0.986,0 1.892,0.164 2.717,0.493c0.825,0.328 1.533,0.786 2.125,1.372c0.592,0.586 1.054,1.278 1.386,2.077c0.332,0.799 0.498,1.67 0.498,2.611Zm-1.938,0c0,-0.693 -0.112,-1.345 -0.336,-1.958c-0.224,-0.613 -0.542,-1.146 -0.955,-1.598c-0.412,-0.453 -0.915,-0.813 -1.507,-1.079c-0.591,-0.267 -1.255,-0.4 -1.99,-0.4c-0.736,0 -1.395,0.133 -1.978,0.4c-0.583,0.266 -1.08,0.626 -1.493,1.079c-0.412,0.452 -0.731,0.985 -0.955,1.598c-0.224,0.613 -0.336,1.265 -0.336,1.958c0,0.692 0.112,1.345 0.336,1.958c0.224,0.612 0.543,1.145 0.955,1.598c0.413,0.453 0.91,0.808 1.493,1.065c0.583,0.258 1.242,0.387 1.978,0.387c0.735,0 1.399,-0.129 1.99,-0.387c0.592,-0.257 1.095,-0.612 1.507,-1.065c0.413,-0.453 0.731,-0.986 0.955,-1.598c0.224,-0.613 0.336,-1.266 0.336,-1.958Z" style="fill:#0b0a00;fill-rule:nonzero;"/><path d="M501.284,590.631c0.502,0.639 1.188,1.181 2.058,1.625c0.87,0.444 1.789,0.666 2.758,0.666c0.897,0 1.659,-0.129 2.287,-0.387c0.627,-0.257 1.134,-0.608 1.52,-1.052c0.385,-0.444 0.668,-0.963 0.847,-1.558c0.18,-0.595 0.269,-1.23 0.269,-1.905l0,-2.344l-0.054,0c-0.484,0.782 -1.17,1.385 -2.058,1.812c-0.888,0.426 -1.789,0.639 -2.704,0.639c-0.986,0 -1.878,-0.16 -2.676,-0.48c-0.799,-0.319 -1.48,-0.759 -2.045,-1.318c-0.565,-0.56 -1.005,-1.23 -1.318,-2.011c-0.314,-0.782 -0.471,-1.625 -0.471,-2.531c0,-0.888 0.157,-1.722 0.471,-2.504c0.313,-0.781 0.753,-1.465 1.318,-2.051c0.565,-0.586 1.246,-1.048 2.045,-1.385c0.798,-0.337 1.69,-0.506 2.676,-0.506c0.915,0 1.812,0.213 2.691,0.639c0.879,0.426 1.569,1.039 2.071,1.838l0.054,0l0,-2.157l1.83,0l0,12.359c0,0.675 -0.095,1.394 -0.283,2.158c-0.188,0.764 -0.538,1.465 -1.049,2.104c-0.511,0.64 -1.206,1.172 -2.085,1.598c-0.879,0.427 -2.018,0.64 -3.417,0.64c-1.166,0 -2.278,-0.222 -3.336,-0.666c-1.058,-0.444 -1.964,-1.057 -2.717,-1.838l1.318,-1.385Zm0.35,-8.897c0,0.657 0.107,1.278 0.323,1.865c0.215,0.586 0.524,1.101 0.928,1.544c0.403,0.444 0.901,0.795 1.493,1.053c0.592,0.257 1.264,0.386 2.018,0.386c0.699,0 1.345,-0.116 1.937,-0.346c0.592,-0.231 1.103,-0.56 1.533,-0.986c0.431,-0.426 0.767,-0.937 1.009,-1.532c0.242,-0.595 0.363,-1.256 0.363,-1.984c0,-0.657 -0.121,-1.279 -0.363,-1.865c-0.242,-0.586 -0.578,-1.101 -1.009,-1.545c-0.43,-0.444 -0.941,-0.799 -1.533,-1.065c-0.592,-0.267 -1.238,-0.4 -1.937,-0.4c-0.754,0 -1.426,0.133 -2.018,0.4c-0.592,0.266 -1.09,0.621 -1.493,1.065c-0.404,0.444 -0.713,0.959 -0.928,1.545c-0.216,0.586 -0.323,1.208 -0.323,1.865Z" style="fill:#0b0a00;fill-rule:nonzero;"/><path d="M527.542,588.127l-1.829,0l0,-12.466l1.829,0l0,12.466Zm0.377,-17.261c0,0.373 -0.135,0.679 -0.404,0.919c-0.269,0.24 -0.565,0.359 -0.888,0.359c-0.323,0 -0.618,-0.119 -0.888,-0.359c-0.269,-0.24 -0.403,-0.546 -0.403,-0.919c0,-0.373 0.134,-0.679 0.403,-0.919c0.27,-0.24 0.565,-0.36 0.888,-0.36c0.323,0 0.619,0.12 0.888,0.36c0.269,0.24 0.404,0.546 0.404,0.919Z" style="fill:#0b0a00;fill-rule:nonzero;"/><path d="M550.087,580.935c-0.054,-1.172 -0.435,-2.145 -1.143,-2.917c-0.709,-0.772 -1.717,-1.159 -3.027,-1.159c-0.61,0 -1.175,0.111 -1.695,0.333c-0.52,0.222 -0.977,0.524 -1.372,0.906c-0.394,0.382 -0.708,0.817 -0.941,1.305c-0.234,0.488 -0.368,0.999 -0.404,1.532l8.582,0Zm1.857,0.586c0,0.124 0,0.257 0,0.399c0,0.142 -0.009,0.293 -0.027,0.453l-10.439,0c0.018,0.622 0.144,1.208 0.377,1.758c0.233,0.551 0.556,1.03 0.968,1.439c0.413,0.408 0.897,0.732 1.453,0.972c0.556,0.24 1.157,0.36 1.803,0.36c0.95,0 1.771,-0.218 2.461,-0.653c0.691,-0.435 1.215,-0.937 1.574,-1.505l1.372,1.065c-0.753,0.942 -1.583,1.616 -2.488,2.025c-0.906,0.408 -1.879,0.612 -2.919,0.612c-0.933,0 -1.798,-0.164 -2.597,-0.492c-0.798,-0.329 -1.484,-0.786 -2.058,-1.372c-0.574,-0.586 -1.027,-1.279 -1.358,-2.078c-0.332,-0.799 -0.498,-1.669 -0.498,-2.61c0,-0.941 0.161,-1.812 0.484,-2.611c0.323,-0.799 0.771,-1.491 1.345,-2.077c0.574,-0.586 1.247,-1.044 2.018,-1.372c0.771,-0.329 1.605,-0.493 2.502,-0.493c0.987,0 1.857,0.164 2.61,0.493c0.753,0.328 1.381,0.772 1.883,1.332c0.502,0.559 0.883,1.212 1.143,1.957c0.261,0.746 0.391,1.545 0.391,2.398Z" style="fill:#0b0a00;fill-rule:nonzero;"/><path d="M570.642,578.617c-0.269,-0.515 -0.677,-0.936 -1.225,-1.265c-0.547,-0.328 -1.17,-0.493 -1.869,-0.493c-0.323,0 -0.646,0.036 -0.969,0.107c-0.323,0.071 -0.61,0.186 -0.861,0.346c-0.251,0.16 -0.453,0.364 -0.605,0.613c-0.153,0.248 -0.229,0.541 -0.229,0.879c0,0.586 0.242,1.034 0.727,1.345c0.484,0.311 1.246,0.573 2.286,0.786c1.489,0.302 2.588,0.741 3.296,1.318c0.709,0.577 1.063,1.354 1.063,2.331c0,0.71 -0.139,1.31 -0.417,1.798c-0.278,0.488 -0.641,0.888 -1.09,1.199c-0.448,0.311 -0.955,0.533 -1.52,0.666c-0.565,0.133 -1.134,0.199 -1.708,0.199c-0.951,0 -1.874,-0.195 -2.771,-0.586c-0.897,-0.39 -1.632,-1.003 -2.206,-1.838l1.452,-1.065c0.323,0.551 0.799,1.012 1.426,1.385c0.628,0.373 1.319,0.56 2.072,0.56c0.394,0 0.771,-0.036 1.13,-0.107c0.359,-0.071 0.672,-0.195 0.941,-0.373c0.27,-0.178 0.485,-0.404 0.646,-0.679c0.162,-0.275 0.242,-0.617 0.242,-1.026c0,-0.657 -0.318,-1.15 -0.955,-1.478c-0.637,-0.329 -1.556,-0.635 -2.757,-0.919c-0.377,-0.089 -0.776,-0.2 -1.198,-0.333c-0.421,-0.133 -0.811,-0.329 -1.17,-0.586c-0.359,-0.258 -0.655,-0.582 -0.888,-0.972c-0.233,-0.391 -0.349,-0.879 -0.349,-1.465c0,-0.64 0.125,-1.186 0.376,-1.639c0.251,-0.452 0.588,-0.825 1.009,-1.118c0.422,-0.293 0.901,-0.511 1.439,-0.653c0.538,-0.142 1.094,-0.213 1.668,-0.213c0.879,0 1.731,0.195 2.556,0.586c0.825,0.391 1.444,0.941 1.857,1.651l-1.399,1.039Z" style="fill:#0b0a00;fill-rule:nonzero;"/></g></g><g><path d="M178.765,386.765c-32.513,-28.631 -50.919,-71.641 -50.919,-121.662c0,-91.153 80.682,-165.369 176.866,-162.371c35.728,1.114 66.285,12.752 90.012,31.843l-77.136,54.032c-4.642,-0.747 -9.409,-1.135 -14.27,-1.135c-47.461,0 -85.994,37.034 -85.994,82.649c0,42.64 33.67,77.781 76.829,82.184c-16.459,13.565 -45.099,33.756 -115.388,34.46Z" style="fill:#0078c4;"/><path d="M345.832,227.481c-1.336,-28.224 -6.416,-49.487 -6.416,-49.487l107.166,23.019c0.235,10.5 0.746,22.018 0.556,34.887l37.785,3.14l-1.394,61.883l-41.013,4.6c-19.116,69.193 -80.997,120.558 -162.279,120.558c-45.352,0 -87.822,-11.049 -115.335,-35.482c66.064,3.549 120.356,-12.15 156.395,-58.735c3.337,-4.314 6.258,-8.915 8.807,-13.731l-50.34,5.647l0.557,-101.743l65.511,5.444Z" style="fill:#ffa817;"/></g></svg>