<svg viewBox="0 0 612 792" xmlns="http://www.w3.org/2000/svg" fill-rule="evenodd" clip-rule="evenodd" stroke-linejoin="round" stroke-miterlimit="1.414"><g fill-rule="nonzero"><path d="M64.01 514.279h23.876c5.141 6.375 7.712 13.1 7.712 20.174 0 8.226-3.013 15.136-9.039 20.729-6.025 5.594-13.439 8.391-22.24 8.391-11.434 0-21.141-4.339-29.12-13.018-7.979-8.678-11.968-19.248-11.968-31.71 0-12.504 4.061-22.909 12.184-31.217 8.123-8.309 18.272-12.463 30.446-12.463 4.154 0 8.761.844 13.82 2.53v25.048c-3.949-1.851-7.548-2.777-10.797-2.777-5.881 0-10.683 1.831-14.405 5.491-3.723 3.661-5.584 8.411-5.584 14.251 0 5.964 1.728 10.694 5.183 14.19 3.454 3.496 8.123 5.244 14.004 5.244 3.743 0 5.614-1.09 5.614-3.27 0-1.645-1.234-2.468-3.701-2.468H64.01v-19.125zM104.05 477.263h23.074v84.212H104.05zM169.815 498.671c8.72 0 16.195 3.136 22.426 9.408 6.231 6.272 9.347 13.789 9.347 22.549 0 8.884-3.157 16.452-9.47 22.704-6.314 6.251-13.933 9.377-22.858 9.377s-16.554-3.136-22.888-9.408c-6.334-6.272-9.501-13.83-9.501-22.673 0-9.007 3.167-16.585 9.501-22.734 6.334-6.149 14.148-9.223 23.443-9.223zm-.616 22.765c-2.468 0-4.566.894-6.293 2.684-1.728 1.789-2.591 3.979-2.591 6.57 0 2.55.874 4.73 2.622 6.539 1.748 1.81 3.835 2.715 6.262 2.715 2.467 0 4.575-.905 6.323-2.715 1.748-1.809 2.622-3.989 2.622-6.539 0-2.591-.864-4.781-2.591-6.57-1.727-1.79-3.846-2.684-6.354-2.684zM244.959 499.349v24.678c-1.604-.905-3.064-1.357-4.381-1.357-4.195 0-6.292 3.208-6.292 9.624v29.181h-23.074v-33.623c0-8.884 2.427-15.968 7.28-21.254 4.853-5.285 11.331-7.927 19.434-7.927 1.809 0 4.154.226 7.033.678zM259.704 588.435v-20.05c3.125 1.316 5.861 1.974 8.205 1.974 7.485 0 12.339-4.216 14.56-12.647-4.031 2.385-7.979 3.578-11.846 3.578-5.717 0-10.426-2.128-14.128-6.385-3.701-4.257-5.552-9.676-5.552-16.257v-38.682h23.074v33.068c0 3.661 1.521 5.491 4.565 5.491 2.92 0 4.38-2.015 4.38-6.046v-32.513h23.074v54.908c0 10.241-2.879 18.508-8.637 24.801-6.869 7.485-15.177 11.228-24.925 11.228-4.277 0-8.534-.822-12.77-2.468z" fill="#0078c4"/><path d="M394.32 477.263l-22.21 38.189 22.086 46.023h-28.132l-19.063-46.517 21.592-37.695h25.727zm-48.06 0v84.212h-25.048v-84.212h25.048zM424.056 499.966v61.509h-23.073v-61.509h23.073zm-11.475-27.453c3.126 0 5.83 1.1 8.113 3.3 2.283 2.201 3.424 4.802 3.424 7.804 0 3.209-1.08 5.841-3.239 7.897-2.159 2.057-4.925 3.085-8.298 3.085-3.372 0-6.138-1.028-8.298-3.085-2.159-2.056-3.239-4.688-3.239-7.897 0-3.002 1.142-5.603 3.424-7.804 2.283-2.2 4.987-3.3 8.113-3.3zM475.509 477.263h23.074v51.268c0 9.418-2.468 17.089-7.404 23.011-2.838 3.414-6.447 6.129-10.827 8.144-4.38 2.015-8.874 3.023-13.48 3.023-9.172 0-16.904-3.085-23.197-9.254-6.293-6.169-9.439-13.737-9.439-22.703 0-8.679 3.126-16.185 9.377-22.519 6.252-6.334 13.655-9.501 22.21-9.501 1.357 0 3.414.124 6.17.371v25.418c-1.892-1.481-3.784-2.221-5.676-2.221-2.386 0-4.432.874-6.139 2.622-1.707 1.748-2.56 3.855-2.56 6.323 0 2.386.884 4.432 2.653 6.139 1.768 1.707 3.886 2.56 6.354 2.56 5.923 0 8.884-4.092 8.884-12.277v-50.404zM548.616 477.263h23.074v51.268c0 9.418-2.468 17.089-7.403 23.011-2.838 3.414-6.447 6.129-10.828 8.144-4.38 2.015-8.873 3.023-13.48 3.023-9.172 0-16.904-3.085-23.197-9.254-6.292-6.169-9.439-13.737-9.439-22.703 0-8.679 3.126-16.185 9.378-22.519 6.251-6.334 13.655-9.501 22.209-9.501 1.358 0 3.414.124 6.17.371v25.418c-1.892-1.481-3.784-2.221-5.676-2.221-2.385 0-4.432.874-6.138 2.622-1.707 1.748-2.561 3.855-2.561 6.323 0 2.386.884 4.432 2.653 6.139 1.769 1.707 3.887 2.56 6.355 2.56 5.922 0 8.883-4.092 8.883-12.277v-50.404z" fill="#ffa817"/><g fill="#0b0a00"><path d="M329.667 588.127h-1.937v-17.155h-6.376v-1.704h14.689v1.704h-6.376v17.155zM353.906 580.935c-.054-1.172-.435-2.145-1.143-2.917-.709-.772-1.718-1.159-3.027-1.159-.61 0-1.175.111-1.695.333a4.52 4.52 0 0 0-2.314 2.211 4.18 4.18 0 0 0-.403 1.532h8.582zm1.856.586v.399c0 .142-.008.293-.026.453h-10.439c.018.622.143 1.208.377 1.758.233.551.556 1.03.968 1.439.413.408.897.732 1.453.972s1.157.36 1.802.36c.951 0 1.772-.218 2.462-.653.691-.435 1.215-.937 1.574-1.505l1.372 1.065c-.753.942-1.583 1.616-2.488 2.025a7.027 7.027 0 0 1-2.92.612 6.765 6.765 0 0 1-2.596-.492 6.094 6.094 0 0 1-2.058-1.372 6.48 6.48 0 0 1-1.358-2.078 6.735 6.735 0 0 1-.498-2.61c0-.941.161-1.812.484-2.611a6.185 6.185 0 0 1 3.363-3.449 6.307 6.307 0 0 1 2.502-.493c.987 0 1.856.164 2.61.493a5.364 5.364 0 0 1 1.883 1.332 5.71 5.71 0 0 1 1.143 1.957c.26.746.39 1.545.39 2.398zM376.828 578.511c-.305-.48-.749-.875-1.332-1.186a3.977 3.977 0 0 0-1.896-.466c-.736 0-1.399.129-1.991.387a4.487 4.487 0 0 0-1.52 1.065 4.67 4.67 0 0 0-.969 1.598 5.737 5.737 0 0 0-.336 1.985c0 .71.112 1.367.336 1.971a4.82 4.82 0 0 0 .955 1.585c.413.453.915.808 1.507 1.065.592.258 1.255.387 1.991.387.807 0 1.488-.151 2.044-.453a4.172 4.172 0 0 0 1.372-1.172l1.373 1.012a5.992 5.992 0 0 1-1.978 1.571c-.78.391-1.717.586-2.811.586-1.023 0-1.946-.164-2.771-.492a6.15 6.15 0 0 1-2.112-1.372 6.211 6.211 0 0 1-1.359-2.078 6.9 6.9 0 0 1-.484-2.61c0-.941.161-1.812.484-2.611a6.207 6.207 0 0 1 1.359-2.077 6.136 6.136 0 0 1 2.112-1.372c.825-.329 1.748-.493 2.771-.493.843 0 1.699.182 2.569.546.87.364 1.574.901 2.112 1.612l-1.426 1.012zM391.221 577.712c.341-.728.906-1.306 1.695-1.732a5.249 5.249 0 0 1 2.529-.639c1.597 0 2.794.471 3.592 1.412s1.197 2.184 1.197 3.729v7.645h-1.829v-6.899c0-.657-.054-1.252-.162-1.785a3.706 3.706 0 0 0-.551-1.372 2.628 2.628 0 0 0-1.049-.892c-.44-.213-.991-.32-1.655-.32-.484 0-.955.098-1.412.293a3.473 3.473 0 0 0-1.225.893c-.358.399-.645.905-.861 1.518-.215.613-.322 1.336-.322 2.171v6.393h-1.83v-20.138h1.83v9.723h.053zM414.681 575.661a23.823 23.823 0 0 1 .108 2.131h.054c.359-.728.941-1.319 1.749-1.772a5.143 5.143 0 0 1 2.555-.679c1.597 0 2.794.471 3.592 1.412s1.197 2.184 1.197 3.729v7.645h-1.829v-6.899c0-.657-.054-1.252-.162-1.785a3.706 3.706 0 0 0-.551-1.372 2.628 2.628 0 0 0-1.049-.892c-.44-.213-.991-.32-1.655-.32-.484 0-.955.098-1.412.293a3.473 3.473 0 0 0-1.225.893c-.358.399-.645.905-.86 1.518-.216.613-.323 1.336-.323 2.171v6.393h-1.83v-9.723a40.22 40.22 0 0 0-.107-2.743h1.748zM449.253 581.894c0 .941-.166 1.811-.498 2.61a6.28 6.28 0 0 1-1.386 2.078 6.293 6.293 0 0 1-2.125 1.372c-.825.328-1.731.492-2.717.492a7.219 7.219 0 0 1-2.691-.492 6.293 6.293 0 0 1-2.125-1.372 6.28 6.28 0 0 1-1.386-2.078 6.753 6.753 0 0 1-.497-2.61c0-.941.166-1.812.497-2.611a6.275 6.275 0 0 1 1.386-2.077 6.278 6.278 0 0 1 2.125-1.372 7.199 7.199 0 0 1 2.691-.493c.986 0 1.892.164 2.717.493a6.278 6.278 0 0 1 2.125 1.372 6.275 6.275 0 0 1 1.386 2.077 6.74 6.74 0 0 1 .498 2.611zm-1.938 0c0-.693-.112-1.345-.336-1.958a4.763 4.763 0 0 0-.955-1.598 4.506 4.506 0 0 0-1.507-1.079c-.591-.267-1.255-.4-1.99-.4-.736 0-1.395.133-1.978.4a4.55 4.55 0 0 0-1.493 1.079 4.78 4.78 0 0 0-.955 1.598 5.657 5.657 0 0 0-.336 1.958c0 .692.112 1.345.336 1.958a4.8 4.8 0 0 0 .955 1.598c.413.453.91.808 1.493 1.065.583.258 1.242.387 1.978.387.735 0 1.399-.129 1.99-.387a4.35 4.35 0 0 0 1.507-1.065c.413-.453.731-.986.955-1.598a5.661 5.661 0 0 0 .336-1.958zM461.305 567.989h1.829v20.138h-1.829zM488.613 581.894c0 .941-.166 1.811-.498 2.61a6.28 6.28 0 0 1-1.386 2.078 6.293 6.293 0 0 1-2.125 1.372c-.825.328-1.731.492-2.717.492a7.219 7.219 0 0 1-2.691-.492 6.293 6.293 0 0 1-2.125-1.372 6.28 6.28 0 0 1-1.386-2.078 6.753 6.753 0 0 1-.497-2.61c0-.941.166-1.812.497-2.611a6.275 6.275 0 0 1 1.386-2.077 6.278 6.278 0 0 1 2.125-1.372 7.199 7.199 0 0 1 2.691-.493c.986 0 1.892.164 2.717.493a6.278 6.278 0 0 1 2.125 1.372 6.275 6.275 0 0 1 1.386 2.077 6.74 6.74 0 0 1 .498 2.611zm-1.938 0c0-.693-.112-1.345-.336-1.958a4.763 4.763 0 0 0-.955-1.598 4.506 4.506 0 0 0-1.507-1.079c-.591-.267-1.255-.4-1.99-.4-.736 0-1.395.133-1.978.4a4.55 4.55 0 0 0-1.493 1.079 4.78 4.78 0 0 0-.955 1.598 5.657 5.657 0 0 0-.336 1.958c0 .692.112 1.345.336 1.958a4.8 4.8 0 0 0 .955 1.598c.413.453.91.808 1.493 1.065.583.258 1.242.387 1.978.387.735 0 1.399-.129 1.99-.387a4.35 4.35 0 0 0 1.507-1.065c.413-.453.731-.986.955-1.598a5.661 5.661 0 0 0 .336-1.958zM501.284 590.631c.502.639 1.188 1.181 2.058 1.625.87.444 1.789.666 2.758.666.897 0 1.659-.129 2.287-.387.627-.257 1.134-.608 1.52-1.052.385-.444.668-.963.847-1.558.18-.595.269-1.23.269-1.905v-2.344h-.054c-.484.782-1.17 1.385-2.058 1.812-.888.426-1.789.639-2.704.639-.986 0-1.878-.16-2.676-.48a6.065 6.065 0 0 1-2.045-1.318 5.867 5.867 0 0 1-1.318-2.011 6.727 6.727 0 0 1-.471-2.531c0-.888.157-1.722.471-2.504a6.3 6.3 0 0 1 1.318-2.051 6.089 6.089 0 0 1 2.045-1.385c.798-.337 1.69-.506 2.676-.506.915 0 1.812.213 2.691.639a4.928 4.928 0 0 1 2.071 1.838h.054v-2.157h1.83v12.359a9.05 9.05 0 0 1-.283 2.158 5.407 5.407 0 0 1-1.049 2.104c-.511.64-1.206 1.172-2.085 1.598-.879.427-2.018.64-3.417.64a8.535 8.535 0 0 1-3.336-.666 8.053 8.053 0 0 1-2.717-1.838l1.318-1.385zm.35-8.897c0 .657.107 1.278.323 1.865.215.586.524 1.101.928 1.544.403.444.901.795 1.493 1.053.592.257 1.264.386 2.018.386.699 0 1.345-.116 1.937-.346a4.447 4.447 0 0 0 1.533-.986 4.519 4.519 0 0 0 1.009-1.532c.242-.595.363-1.256.363-1.984 0-.657-.121-1.279-.363-1.865a4.856 4.856 0 0 0-2.542-2.61 4.657 4.657 0 0 0-1.937-.4c-.754 0-1.426.133-2.018.4a4.448 4.448 0 0 0-1.493 1.065 4.648 4.648 0 0 0-.928 1.545 5.35 5.35 0 0 0-.323 1.865zM527.542 588.127h-1.829v-12.466h1.829v12.466zm.377-17.261c0 .373-.135.679-.404.919s-.565.359-.888.359c-.323 0-.618-.119-.888-.359a1.176 1.176 0 0 1-.403-.919c0-.373.134-.679.403-.919.27-.24.565-.36.888-.36.323 0 .619.12.888.36s.404.546.404.919zM550.087 580.935c-.054-1.172-.435-2.145-1.143-2.917-.709-.772-1.717-1.159-3.027-1.159-.61 0-1.175.111-1.695.333a4.516 4.516 0 0 0-2.313 2.211 4.161 4.161 0 0 0-.404 1.532h8.582zm1.857.586v.399c0 .142-.009.293-.027.453h-10.439c.018.622.144 1.208.377 1.758.233.551.556 1.03.968 1.439.413.408.897.732 1.453.972a4.5 4.5 0 0 0 1.803.36c.95 0 1.771-.218 2.461-.653.691-.435 1.215-.937 1.574-1.505l1.372 1.065c-.753.942-1.583 1.616-2.488 2.025a7.026 7.026 0 0 1-2.919.612 6.77 6.77 0 0 1-2.597-.492 6.094 6.094 0 0 1-2.058-1.372 6.48 6.48 0 0 1-1.358-2.078 6.735 6.735 0 0 1-.498-2.61c0-.941.161-1.812.484-2.611a6.185 6.185 0 0 1 3.363-3.449 6.307 6.307 0 0 1 2.502-.493c.987 0 1.857.164 2.61.493a5.364 5.364 0 0 1 1.883 1.332 5.71 5.71 0 0 1 1.143 1.957 7.21 7.21 0 0 1 .391 2.398zM570.642 578.617c-.269-.515-.677-.936-1.225-1.265-.547-.328-1.17-.493-1.869-.493-.323 0-.646.036-.969.107-.323.071-.61.186-.861.346-.251.16-.453.364-.605.613a1.64 1.64 0 0 0-.229.879c0 .586.242 1.034.727 1.345.484.311 1.246.573 2.286.786 1.489.302 2.588.741 3.296 1.318.709.577 1.063 1.354 1.063 2.331 0 .71-.139 1.31-.417 1.798a3.61 3.61 0 0 1-1.09 1.199 4.41 4.41 0 0 1-1.52.666 7.427 7.427 0 0 1-1.708.199 6.865 6.865 0 0 1-2.771-.586 5.112 5.112 0 0 1-2.206-1.838l1.452-1.065c.323.551.799 1.012 1.426 1.385.628.373 1.319.56 2.072.56.394 0 .771-.036 1.13-.107.359-.071.672-.195.941-.373.27-.178.485-.404.646-.679.162-.275.242-.617.242-1.026 0-.657-.318-1.15-.955-1.478-.637-.329-1.556-.635-2.757-.919-.377-.089-.776-.2-1.198-.333a4.143 4.143 0 0 1-1.17-.586 3.208 3.208 0 0 1-.888-.972c-.233-.391-.349-.879-.349-1.465 0-.64.125-1.186.376-1.639a3.292 3.292 0 0 1 1.009-1.118 4.522 4.522 0 0 1 1.439-.653 6.508 6.508 0 0 1 1.668-.213c.879 0 1.731.195 2.556.586.825.391 1.444.941 1.857 1.651l-1.399 1.039z"/></g></g><path d="M178.765 386.765c-32.513-28.631-50.919-71.641-50.919-121.662 0-91.153 80.682-165.369 176.866-162.371 35.728 1.114 66.285 12.752 90.012 31.843l-77.136 54.032a89.777 89.777 0 0 0-14.27-1.135c-47.461 0-85.994 37.034-85.994 82.649 0 42.64 33.67 77.781 76.829 82.184-16.459 13.565-45.099 33.756-115.388 34.46z" fill="#0078c4"/><path d="M345.832 227.481c-1.336-28.224-6.416-49.487-6.416-49.487l107.166 23.019c.235 10.5.746 22.018.556 34.887l37.785 3.14-1.394 61.883-41.013 4.6c-19.116 69.193-80.997 120.558-162.279 120.558-45.352 0-87.822-11.049-115.335-35.482 66.064 3.549 120.356-12.15 156.395-58.735 3.337-4.314 6.258-8.915 8.807-13.731l-50.34 5.647.557-101.743 65.511 5.444z" fill="#ffa817"/></svg>